<svg width="382" height="600">
<rect width="382" height="600" fill="black" />
<line x1="235.427" y1="375.012" x2="210.187" y2="366.949" style="stroke:#666666" />
<line x1="235.427" y1="375.012" x2="243.14" y2="397.448" style="stroke:#666666" />
<line x1="235.427" y1="375.012" x2="234.025" y2="349.07" style="stroke:#666666" />
<line x1="235.427" y1="375.012" x2="254.358" y2="366.949" style="stroke:#666666" />
<line x1="302.384" y1="430.05" x2="272.937" y2="448.629" style="stroke:#666666" />
<line x1="302.384" y1="430.05" x2="273.288" y2="419.883" style="stroke:#666666" />
<line x1="302.384" y1="430.05" x2="322.717" y2="420.234" style="stroke:#666666" />
<line x1="302.384" y1="430.05" x2="302.384" y2="456.342" style="stroke:#666666" />
<line x1="51.7343" y1="443.371" x2="60.1478" y2="457.043" style="stroke:#666666" />
<line x1="51.7343" y1="443.371" x2="46.4759" y2="424.441" style="stroke:#666666" />
<line x1="51.7343" y1="443.371" x2="42.2692" y2="466.157" style="stroke:#666666" />
<line x1="100.462" y1="305.952" x2="117.99" y2="295.785" style="stroke:#666666" />
<line x1="100.462" y1="305.952" x2="124.651" y2="319.623" style="stroke:#666666" />
<line x1="272.937" y1="448.629" x2="273.288" y2="419.883" style="stroke:#666666" />
<line x1="272.937" y1="448.629" x2="276.793" y2="463.703" style="stroke:#666666" />
<line x1="272.937" y1="448.629" x2="263.122" y2="457.744" style="stroke:#666666" />
<line x1="212.291" y1="545.734" x2="240.335" y2="552.395" style="stroke:#666666" />
<line x1="212.291" y1="545.734" x2="220.003" y2="527.856" style="stroke:#666666" />
<line x1="212.291" y1="545.734" x2="184.246" y2="544.683" style="stroke:#666666" />
<line x1="212.291" y1="545.734" x2="197.216" y2="564.314" style="stroke:#666666" />
<line x1="240.335" y1="552.395" x2="237.18" y2="538.372" style="stroke:#666666" />
<line x1="240.335" y1="552.395" x2="234.376" y2="566.417" style="stroke:#666666" />
<line x1="240.335" y1="552.395" x2="266.978" y2="533.114" style="stroke:#666666" />
<line x1="306.942" y1="325.583" x2="314.303" y2="344.513" style="stroke:#666666" />
<line x1="306.942" y1="325.583" x2="291.517" y2="334.347" style="stroke:#666666" />
<line x1="306.942" y1="325.583" x2="296.775" y2="364.144" style="stroke:#666666" />
<line x1="210.187" y1="366.949" x2="202.475" y2="371.506" style="stroke:#666666" />
<line x1="210.187" y1="366.949" x2="234.025" y2="349.07" style="stroke:#666666" />
<line x1="210.187" y1="366.949" x2="206.682" y2="339.255" style="stroke:#666666" />
<line x1="239.634" y1="466.508" x2="239.634" y2="486.139" style="stroke:#666666" />
<line x1="239.634" y1="466.508" x2="235.077" y2="446.876" style="stroke:#666666" />
<line x1="103.968" y1="534.166" x2="92.7498" y2="551.694" style="stroke:#666666" />
<line x1="103.968" y1="534.166" x2="125.352" y2="551.694" style="stroke:#666666" />
<line x1="103.968" y1="534.166" x2="120.444" y2="524.701" style="stroke:#666666" />
<line x1="103.968" y1="534.166" x2="98.3587" y2="508.925" style="stroke:#666666" />
<line x1="293.62" y1="495.604" x2="273.288" y2="500.161" style="stroke:#666666" />
<line x1="92.7498" y1="357.834" x2="128.857" y2="359.587" style="stroke:#666666" />
<line x1="92.7498" y1="357.834" x2="99.761" y2="378.517" style="stroke:#666666" />
<line x1="92.7498" y1="357.834" x2="110.628" y2="332.945" style="stroke:#666666" />
<line x1="261.369" y1="382.023" x2="273.989" y2="400.252" style="stroke:#666666" />
<line x1="113.783" y1="426.895" x2="95.9048" y2="446.526" style="stroke:#666666" />
<line x1="113.783" y1="426.895" x2="132.012" y2="440.566" style="stroke:#666666" />
<line x1="113.783" y1="426.895" x2="122.197" y2="406.913" style="stroke:#666666" />
<line x1="113.783" y1="426.895" x2="92.7498" y2="423.038" style="stroke:#666666" />
<line x1="212.291" y1="281.062" x2="200.371" y2="263.183" style="stroke:#666666" />
<line x1="212.291" y1="281.062" x2="187.401" y2="297.188" style="stroke:#666666" />
<line x1="184.246" y1="348.019" x2="194.763" y2="354.679" style="stroke:#666666" />
<line x1="184.246" y1="348.019" x2="200.021" y2="330.14" style="stroke:#666666" />
<line x1="117.639" y1="486.49" x2="143.581" y2="484.036" style="stroke:#666666" />
<line x1="117.639" y1="486.49" x2="128.156" y2="476.674" style="stroke:#666666" />
<line x1="117.639" y1="486.49" x2="112.381" y2="466.157" style="stroke:#666666" />
<line x1="117.639" y1="486.49" x2="125.352" y2="505.42" style="stroke:#666666" />
<line x1="45.7748" y1="487.541" x2="58.7455" y2="475.272" style="stroke:#666666" />
<line x1="212.641" y1="187.463" x2="168.821" y2="186.06" style="stroke:#666666" />
<line x1="212.641" y1="187.463" x2="228.416" y2="214.105" style="stroke:#666666" />
<line x1="212.641" y1="187.463" x2="227.715" y2="173.44" style="stroke:#666666" />
<line x1="332.532" y1="457.393" x2="302.384" y2="456.342" style="stroke:#666666" />
<line x1="239.634" y1="486.139" x2="263.823" y2="492.099" style="stroke:#666666" />
<line x1="141.127" y1="509.276" x2="148.489" y2="518.391" style="stroke:#666666" />
<line x1="141.127" y1="509.276" x2="175.131" y2="498.759" style="stroke:#666666" />
<line x1="141.127" y1="509.276" x2="139.725" y2="500.863" style="stroke:#666666" />
<line x1="141.127" y1="509.276" x2="125.352" y2="505.42" style="stroke:#666666" />
<line x1="164.264" y1="196.227" x2="168.821" y2="186.06" style="stroke:#666666" />
<line x1="218.951" y1="231.633" x2="228.416" y2="214.105" style="stroke:#666666" />
<line x1="218.951" y1="231.633" x2="221.405" y2="248.81" style="stroke:#666666" />
<line x1="218.951" y1="231.633" x2="203.527" y2="239.345" style="stroke:#666666" />
<line x1="92.7498" y1="551.694" x2="85.7386" y2="565.716" style="stroke:#666666" />
<line x1="92.7498" y1="551.694" x2="125.352" y2="551.694" style="stroke:#666666" />
<line x1="92.7498" y1="551.694" x2="60.1478" y2="557.303" style="stroke:#666666" />
<line x1="92.7498" y1="551.694" x2="121.145" y2="572.727" style="stroke:#666666" />
<line x1="92.7498" y1="551.694" x2="55.2399" y2="534.166" style="stroke:#666666" />
<line x1="166.367" y1="514.184" x2="189.855" y2="521.896" style="stroke:#666666" />
<line x1="166.367" y1="514.184" x2="148.489" y2="518.391" style="stroke:#666666" />
<line x1="166.367" y1="514.184" x2="175.131" y2="498.759" style="stroke:#666666" />
<line x1="166.367" y1="514.184" x2="172.677" y2="532.413" style="stroke:#666666" />
<line x1="184.596" y1="419.883" x2="194.763" y2="411.119" style="stroke:#666666" />
<line x1="300.982" y1="410.418" x2="273.989" y2="400.252" style="stroke:#666666" />
<line x1="128.857" y1="359.587" x2="151.293" y2="351.875" style="stroke:#666666" />
<line x1="128.857" y1="359.587" x2="153.046" y2="366.949" style="stroke:#666666" />
<line x1="128.857" y1="359.587" x2="110.628" y2="332.945" style="stroke:#666666" />
<line x1="143.581" y1="484.036" x2="159.005" y2="492.099" style="stroke:#666666" />
<line x1="143.581" y1="484.036" x2="139.725" y2="500.863" style="stroke:#666666" />
<line x1="273.288" y1="419.883" x2="273.989" y2="400.252" style="stroke:#666666" />
<line x1="209.837" y1="432.504" x2="235.077" y2="446.876" style="stroke:#666666" />
<line x1="209.837" y1="432.504" x2="224.911" y2="419.533" style="stroke:#666666" />
<line x1="209.837" y1="432.504" x2="194.763" y2="411.119" style="stroke:#666666" />
<line x1="209.837" y1="432.504" x2="194.061" y2="439.865" style="stroke:#666666" />
<line x1="122.547" y1="244.954" x2="106.071" y2="237.242" style="stroke:#666666" />
<line x1="254.358" y1="411.119" x2="243.14" y2="397.448" style="stroke:#666666" />
<line x1="254.358" y1="411.119" x2="250.501" y2="434.957" style="stroke:#666666" />
<line x1="254.358" y1="411.119" x2="273.989" y2="400.252" style="stroke:#666666" />
<line x1="277.277" y1="101.976" x2="298.962" y2="113.279" style="stroke:#666666" />
<line x1="277.277" y1="101.976" x2="250.795" y2="87.7467" style="stroke:#666666" />
<line x1="277.277" y1="101.976" x2="300.939" y2="84.4258" style="stroke:#666666" />
<line x1="128.507" y1="455.29" x2="128.156" y2="476.674" style="stroke:#666666" />
<line x1="128.507" y1="455.29" x2="132.012" y2="440.566" style="stroke:#666666" />
<line x1="128.507" y1="455.29" x2="147.437" y2="471.766" style="stroke:#666666" />
<line x1="151.644" y1="172.739" x2="168.821" y2="186.06" style="stroke:#666666" />
<line x1="203.176" y1="491.047" x2="189.154" y2="505.42" style="stroke:#666666" />
<line x1="203.176" y1="491.047" x2="227.365" y2="498.759" style="stroke:#666666" />
<line x1="203.176" y1="491.047" x2="190.205" y2="462.301" style="stroke:#666666" />
<line x1="203.176" y1="491.047" x2="213.693" y2="509.627" style="stroke:#666666" />
<line x1="203.176" y1="491.047" x2="205.63" y2="472.818" style="stroke:#666666" />
<line x1="93.1003" y1="277.206" x2="104.318" y2="264.936" style="stroke:#666666" />
<line x1="93.1003" y1="277.206" x2="117.99" y2="295.785" style="stroke:#666666" />
<line x1="93.1003" y1="277.206" x2="88.8936" y2="258.626" style="stroke:#666666" />
<line x1="141.828" y1="562.561" x2="125.352" y2="551.694" style="stroke:#666666" />
<line x1="141.828" y1="562.561" x2="121.145" y2="572.727" style="stroke:#666666" />
<line x1="141.828" y1="562.561" x2="154.098" y2="546.085" style="stroke:#666666" />
<line x1="104.318" y1="264.936" x2="123.95" y2="269.143" style="stroke:#666666" />
<line x1="104.318" y1="264.936" x2="106.071" y2="237.242" style="stroke:#666666" />
<line x1="182.758" y1="159.919" x2="202.179" y2="138.734" style="stroke:#666666" />
<line x1="256.11" y1="347.318" x2="270.834" y2="357.834" style="stroke:#666666" />
<line x1="256.11" y1="347.318" x2="269.432" y2="331.192" style="stroke:#666666" />
<line x1="36.6603" y1="522.247" x2="31.0513" y2="544.332" style="stroke:#666666" />
<line x1="36.6603" y1="522.247" x2="23.6896" y2="502.615" style="stroke:#666666" />
<line x1="36.6603" y1="522.247" x2="55.2399" y2="534.166" style="stroke:#666666" />
<line x1="200.371" y1="263.183" x2="160.408" y2="270.545" style="stroke:#666666" />
<line x1="200.371" y1="263.183" x2="221.405" y2="248.81" style="stroke:#666666" />
<line x1="360.148" y1="168.344" x2="338.097" y2="175.274" style="stroke:#666666" />
<line x1="360.148" y1="168.344" x2="340.242" y2="161.244" style="stroke:#666666" />
<line x1="338.097" y1="175.274" x2="312.508" y2="179.797" style="stroke:#666666" />
<line x1="338.097" y1="175.274" x2="340.242" y2="161.244" style="stroke:#666666" />
<line x1="338.097" y1="175.274" x2="326.241" y2="198.831" style="stroke:#666666" />
<line x1="187.401" y1="297.188" x2="160.408" y2="270.545" style="stroke:#666666" />
<line x1="187.401" y1="297.188" x2="203.527" y2="309.107" style="stroke:#666666" />
<line x1="187.401" y1="297.188" x2="161.81" y2="322.428" style="stroke:#666666" />
<line x1="202.475" y1="371.506" x2="194.763" y2="354.679" style="stroke:#666666" />
<line x1="202.475" y1="371.506" x2="190.906" y2="384.126" style="stroke:#666666" />
<line x1="231.571" y1="403.057" x2="243.14" y2="397.448" style="stroke:#666666" />
<line x1="231.571" y1="403.057" x2="219.302" y2="387.632" style="stroke:#666666" />
<line x1="231.571" y1="403.057" x2="194.763" y2="411.119" style="stroke:#666666" />
<line x1="261.018" y1="300.693" x2="275.742" y2="316.468" style="stroke:#666666" />
<line x1="261.018" y1="300.693" x2="252.254" y2="280.361" style="stroke:#666666" />
<line x1="261.018" y1="300.693" x2="245.243" y2="313.313" style="stroke:#666666" />
<line x1="176.533" y1="370.104" x2="194.763" y2="354.679" style="stroke:#666666" />
<line x1="176.533" y1="370.104" x2="171.976" y2="377.466" style="stroke:#666666" />
<line x1="176.533" y1="370.104" x2="153.046" y2="366.949" style="stroke:#666666" />
<line x1="173.378" y1="474.921" x2="187.05" y2="485.087" style="stroke:#666666" />
<line x1="173.378" y1="474.921" x2="175.131" y2="498.759" style="stroke:#666666" />
<line x1="173.378" y1="474.921" x2="161.459" y2="452.485" style="stroke:#666666" />
<line x1="173.378" y1="474.921" x2="190.205" y2="462.301" style="stroke:#666666" />
<line x1="173.378" y1="474.921" x2="147.437" y2="471.766" style="stroke:#666666" />
<line x1="298.962" y1="113.279" x2="322.678" y2="94.7021" style="stroke:#666666" />
<line x1="364.97" y1="85.216" x2="354.693" y2="64.663" style="stroke:#666666" />
<line x1="364.97" y1="85.216" x2="322.678" y2="94.7021" style="stroke:#666666" />
<line x1="95.9048" y1="446.526" x2="85.0375" y2="440.566" style="stroke:#666666" />
<line x1="95.9048" y1="446.526" x2="132.012" y2="440.566" style="stroke:#666666" />
<line x1="95.9048" y1="446.526" x2="112.381" y2="466.157" style="stroke:#666666" />
<line x1="332.804" y1="213.917" x2="326.241" y2="198.831" style="stroke:#666666" />
<line x1="326.845" y1="231.095" x2="302.018" y2="219.509" style="stroke:#666666" />
<line x1="246.295" y1="525.752" x2="220.003" y2="527.856" style="stroke:#666666" />
<line x1="246.295" y1="525.752" x2="235.427" y2="514.534" style="stroke:#666666" />
<line x1="246.295" y1="525.752" x2="237.18" y2="538.372" style="stroke:#666666" />
<line x1="246.295" y1="525.752" x2="266.978" y2="533.114" style="stroke:#666666" />
<line x1="251.203" y1="263.534" x2="232.974" y2="275.453" style="stroke:#666666" />
<line x1="251.203" y1="263.534" x2="252.254" y2="280.361" style="stroke:#666666" />
<line x1="235.077" y1="446.876" x2="250.501" y2="434.957" style="stroke:#666666" />
<line x1="235.077" y1="446.876" x2="263.122" y2="457.744" style="stroke:#666666" />
<line x1="189.855" y1="521.896" x2="220.003" y2="527.856" style="stroke:#666666" />
<line x1="189.855" y1="521.896" x2="172.677" y2="532.413" style="stroke:#666666" />
<line x1="189.855" y1="521.896" x2="213.693" y2="509.627" style="stroke:#666666" />
<line x1="75.5724" y1="407.614" x2="93.1003" y2="398.499" style="stroke:#666666" />
<line x1="75.5724" y1="407.614" x2="70.314" y2="384.126" style="stroke:#666666" />
<line x1="75.5724" y1="407.614" x2="92.7498" y2="423.038" style="stroke:#666666" />
<line x1="167.419" y1="400.603" x2="166.017" y2="415.677" style="stroke:#666666" />
<line x1="167.419" y1="400.603" x2="141.127" y2="397.097" style="stroke:#666666" />
<line x1="167.419" y1="400.603" x2="194.763" y2="411.119" style="stroke:#666666" />
<line x1="125.352" y1="551.694" x2="154.098" y2="546.085" style="stroke:#666666" />
<line x1="132.714" y1="339.956" x2="110.628" y2="332.945" style="stroke:#666666" />
<line x1="276.251" y1="226.486" x2="283.743" y2="207.201" style="stroke:#666666" />
<line x1="276.251" y1="226.486" x2="267.344" y2="219.129" style="stroke:#666666" />
<line x1="276.251" y1="226.486" x2="302.018" y2="219.509" style="stroke:#666666" />
<line x1="276.251" y1="226.486" x2="294.053" y2="238.952" style="stroke:#666666" />
<line x1="276.251" y1="226.486" x2="263.001" y2="242.367" style="stroke:#666666" />
<line x1="348.696" y1="113.409" x2="349.338" y2="135.582" style="stroke:#666666" />
<line x1="234.195" y1="120.948" x2="237.752" y2="132.806" style="stroke:#666666" />
<line x1="234.195" y1="120.948" x2="250.795" y2="87.7467" style="stroke:#666666" />
<line x1="234.195" y1="120.948" x2="202.179" y2="138.734" style="stroke:#666666" />
<line x1="234.195" y1="120.948" x2="219.57" y2="109.486" style="stroke:#666666" />
<line x1="234.025" y1="349.07" x2="206.682" y2="339.255" style="stroke:#666666" />
<line x1="234.025" y1="349.07" x2="243.14" y2="333.646" style="stroke:#666666" />
<line x1="272.937" y1="550.642" x2="284.155" y2="541.527" style="stroke:#666666" />
<line x1="272.937" y1="550.642" x2="288.011" y2="554.148" style="stroke:#666666" />
<line x1="272.937" y1="550.642" x2="266.978" y2="533.114" style="stroke:#666666" />
<line x1="117.99" y1="295.785" x2="124.651" y2="319.623" style="stroke:#666666" />
<line x1="170.559" y1="118.972" x2="202.179" y2="138.734" style="stroke:#666666" />
<line x1="219.302" y1="387.632" x2="202.475" y2="391.488" style="stroke:#666666" />
<line x1="242.416" y1="235.792" x2="263.001" y2="242.367" style="stroke:#666666" />
<line x1="271.924" y1="258.622" x2="268.731" y2="267.39" style="stroke:#666666" />
<line x1="271.924" y1="258.622" x2="263.001" y2="242.367" style="stroke:#666666" />
<line x1="93.1003" y1="398.499" x2="99.761" y2="378.517" style="stroke:#666666" />
<line x1="224.911" y1="419.533" x2="250.501" y2="434.957" style="stroke:#666666" />
<line x1="85.0375" y1="440.566" x2="88.8936" y2="460.899" style="stroke:#666666" />
<line x1="85.0375" y1="440.566" x2="92.7498" y2="423.038" style="stroke:#666666" />
<line x1="294.321" y1="478.777" x2="276.793" y2="463.703" style="stroke:#666666" />
<line x1="17.3795" y1="398.499" x2="17.3795" y2="418.131" style="stroke:#666666" />
<line x1="273.288" y1="500.161" x2="263.823" y2="492.099" style="stroke:#666666" />
<line x1="184.246" y1="544.683" x2="154.098" y2="546.085" style="stroke:#666666" />
<line x1="184.246" y1="544.683" x2="172.677" y2="532.413" style="stroke:#666666" />
<line x1="124.651" y1="319.623" x2="110.628" y2="332.945" style="stroke:#666666" />
<line x1="247.346" y1="206.743" x2="228.416" y2="214.105" style="stroke:#666666" />
<line x1="247.346" y1="206.743" x2="245.594" y2="227.426" style="stroke:#666666" />
<line x1="58.7455" y1="475.272" x2="60.1478" y2="457.043" style="stroke:#666666" />
<line x1="58.7455" y1="475.272" x2="42.2692" y2="466.157" style="stroke:#666666" />
<line x1="58.7455" y1="475.272" x2="68.9117" y2="494.553" style="stroke:#666666" />
<line x1="289.764" y1="384.477" x2="273.989" y2="400.252" style="stroke:#666666" />
<line x1="232.974" y1="275.453" x2="240.335" y2="293.331" style="stroke:#666666" />
<line x1="232.974" y1="275.453" x2="221.405" y2="248.81" style="stroke:#666666" />
<line x1="232.974" y1="275.453" x2="252.254" y2="280.361" style="stroke:#666666" />
<line x1="283.743" y1="207.201" x2="301.768" y2="191.064" style="stroke:#666666" />
<line x1="283.743" y1="207.201" x2="270.483" y2="195.525" style="stroke:#666666" />
<line x1="363.861" y1="151.145" x2="349.338" y2="135.582" style="stroke:#666666" />
<line x1="128.156" y1="476.674" x2="147.437" y2="471.766" style="stroke:#666666" />
<line x1="354.693" y1="64.663" x2="322.678" y2="94.7021" style="stroke:#666666" />
<line x1="88.8936" y1="487.191" x2="78.7274" y2="473.87" style="stroke:#666666" />
<line x1="88.8936" y1="487.191" x2="68.9117" y2="494.553" style="stroke:#666666" />
<line x1="315.258" y1="165.693" x2="318.066" y2="148.927" style="stroke:#666666" />
<line x1="301.768" y1="191.064" x2="302.018" y2="219.509" style="stroke:#666666" />
<line x1="301.768" y1="191.064" x2="297.562" y2="172.144" style="stroke:#666666" />
<line x1="301.768" y1="191.064" x2="312.508" y2="179.797" style="stroke:#666666" />
<line x1="267.344" y1="219.129" x2="263.001" y2="242.367" style="stroke:#666666" />
<line x1="142.529" y1="432.153" x2="132.012" y2="440.566" style="stroke:#666666" />
<line x1="237.752" y1="132.806" x2="266.605" y2="143.873" style="stroke:#666666" />
<line x1="250.795" y1="87.7467" x2="228.265" y2="49.8021" style="stroke:#666666" />
<line x1="308.107" y1="27.2727" x2="288.739" y2="66.0078" style="stroke:#666666" />
<line x1="31.0513" y1="544.332" x2="55.2399" y2="534.166" style="stroke:#666666" />
<line x1="235.427" y1="514.534" x2="227.365" y2="498.759" style="stroke:#666666" />
<line x1="235.427" y1="514.534" x2="213.693" y2="509.627" style="stroke:#666666" />
<line x1="288.739" y1="66.0078" x2="300.939" y2="84.4258" style="stroke:#666666" />
<line x1="78.7274" y1="473.87" x2="68.9117" y2="494.553" style="stroke:#666666" />
<line x1="324.119" y1="364.495" x2="345.152" y2="352.927" style="stroke:#666666" />
<line x1="324.119" y1="364.495" x2="337.09" y2="374.311" style="stroke:#666666" />
<line x1="345.152" y1="352.927" x2="337.09" y2="374.311" style="stroke:#666666" />
<line x1="353.215" y1="432.153" x2="354.968" y2="413.223" style="stroke:#666666" />
<line x1="354.968" y1="413.223" x2="334.285" y2="405.16" style="stroke:#666666" />
<line x1="120.444" y1="524.701" x2="98.3587" y2="508.925" style="stroke:#666666" />
<line x1="120.444" y1="524.701" x2="144.983" y2="532.062" style="stroke:#666666" />
<line x1="120.444" y1="524.701" x2="125.352" y2="505.42" style="stroke:#666666" />
<line x1="27.8963" y1="447.578" x2="21.2357" y2="434.957" style="stroke:#666666" />
<line x1="206.682" y1="339.255" x2="200.021" y2="330.14" style="stroke:#666666" />
<line x1="154.098" y1="546.085" x2="172.677" y2="532.413" style="stroke:#666666" />
<line x1="154.098" y1="546.085" x2="144.983" y2="532.062" style="stroke:#666666" />
<line x1="154.098" y1="546.085" x2="173.729" y2="560.808" style="stroke:#666666" />
<line x1="114.835" y1="372.558" x2="99.761" y2="378.517" style="stroke:#666666" />
<line x1="302.018" y1="219.509" x2="294.053" y2="238.952" style="stroke:#666666" />
<line x1="302.018" y1="219.509" x2="326.241" y2="198.831" style="stroke:#666666" />
<line x1="250.501" y1="434.957" x2="263.122" y2="457.744" style="stroke:#666666" />
<line x1="258.564" y1="471.416" x2="263.823" y2="492.099" style="stroke:#666666" />
<line x1="258.564" y1="471.416" x2="263.122" y2="457.744" style="stroke:#666666" />
<line x1="166.017" y1="237.943" x2="160.408" y2="270.545" style="stroke:#666666" />
<line x1="297.562" y1="172.144" x2="312.508" y2="179.797" style="stroke:#666666" />
<line x1="297.562" y1="172.144" x2="318.066" y2="148.927" style="stroke:#666666" />
<line x1="270.834" y1="357.834" x2="269.432" y2="331.192" style="stroke:#666666" />
<line x1="270.834" y1="357.834" x2="296.775" y2="364.144" style="stroke:#666666" />
<line x1="161.459" y1="452.485" x2="161.459" y2="429.349" style="stroke:#666666" />
<line x1="161.459" y1="452.485" x2="147.437" y2="471.766" style="stroke:#666666" />
<line x1="161.459" y1="452.485" x2="194.061" y2="439.865" style="stroke:#666666" />
<line x1="141.127" y1="397.097" x2="122.197" y2="406.913" style="stroke:#666666" />
<line x1="141.127" y1="397.097" x2="140.075" y2="419.182" style="stroke:#666666" />
<line x1="141.127" y1="397.097" x2="144.282" y2="384.827" style="stroke:#666666" />
<line x1="151.293" y1="351.875" x2="153.046" y2="366.949" style="stroke:#666666" />
<line x1="151.293" y1="351.875" x2="163.563" y2="338.554" style="stroke:#666666" />
<line x1="21.2357" y1="434.957" x2="46.4759" y2="424.441" style="stroke:#666666" />
<line x1="46.4759" y1="424.441" x2="17.3795" y2="418.131" style="stroke:#666666" />
<line x1="228.416" y1="214.105" x2="245.594" y2="227.426" style="stroke:#666666" />
<line x1="276.793" y1="463.703" x2="263.122" y2="457.744" style="stroke:#666666" />
<line x1="276.793" y1="463.703" x2="302.384" y2="456.342" style="stroke:#666666" />
<line x1="269.432" y1="331.192" x2="275.742" y2="316.468" style="stroke:#666666" />
<line x1="275.742" y1="316.468" x2="291.517" y2="334.347" style="stroke:#666666" />
<line x1="70.314" y1="384.126" x2="99.761" y2="378.517" style="stroke:#666666" />
<line x1="88.8936" y1="460.899" x2="112.381" y2="466.157" style="stroke:#666666" />
<line x1="161.459" y1="429.349" x2="140.075" y2="419.182" style="stroke:#666666" />
<line x1="106.071" y1="237.242" x2="88.8936" y2="258.626" style="stroke:#666666" />
<line x1="106.071" y1="237.242" x2="102.215" y2="224.271" style="stroke:#666666" />
<line x1="243.14" y1="333.646" x2="223.859" y2="319.623" style="stroke:#666666" />
<line x1="243.14" y1="333.646" x2="245.243" y2="313.313" style="stroke:#666666" />
<line x1="171.275" y1="436.36" x2="194.061" y2="439.865" style="stroke:#666666" />
<line x1="217.899" y1="482.283" x2="205.63" y2="472.818" style="stroke:#666666" />
<line x1="227.365" y1="498.759" x2="213.693" y2="509.627" style="stroke:#666666" />
<line x1="203.527" y1="309.107" x2="200.021" y2="330.14" style="stroke:#666666" />
<line x1="122.197" y1="406.913" x2="99.761" y2="378.517" style="stroke:#666666" />
<line x1="55.2399" y1="534.166" x2="51.0332" y2="507.173" style="stroke:#666666" />
<line x1="161.81" y1="322.428" x2="163.563" y2="338.554" style="stroke:#666666" />
<line x1="161.81" y1="322.428" x2="200.021" y2="330.14" style="stroke:#666666" />
<line x1="202.179" y1="138.734" x2="219.57" y2="109.486" style="stroke:#666666" />
<line x1="171.976" y1="377.466" x2="190.906" y2="384.126" style="stroke:#666666" />
<line x1="171.976" y1="377.466" x2="153.046" y2="366.949" style="stroke:#666666" />
<line x1="322.678" y1="94.7021" x2="300.939" y2="84.4258" style="stroke:#666666" />
<line x1="190.906" y1="384.126" x2="202.475" y2="391.488" style="stroke:#666666" />
<line x1="240.335" y1="293.331" x2="252.254" y2="280.361" style="stroke:#666666" />
<line x1="240.335" y1="293.331" x2="217.198" y2="302.095" style="stroke:#666666" />
<line x1="190.205" y1="462.301" x2="205.63" y2="472.818" style="stroke:#666666" />
<line x1="88.8936" y1="258.626" x2="63.6534" y2="257.574" style="stroke:#666666" />
<line x1="221.405" y1="248.81" x2="203.527" y2="239.345" style="stroke:#666666" />
<line x1="273.989" y1="400.252" x2="320.964" y2="391.839" style="stroke:#666666" />
<line x1="98.3587" y1="508.925" x2="86.0891" y2="518.04" style="stroke:#666666" />
<line x1="98.3587" y1="508.925" x2="86.0891" y2="499.811" style="stroke:#666666" />
<line x1="284.155" y1="541.527" x2="288.011" y2="554.148" style="stroke:#666666" />
<line x1="100.112" y1="478.777" x2="112.381" y2="466.157" style="stroke:#666666" />
<line x1="139.725" y1="500.863" x2="125.352" y2="505.42" style="stroke:#666666" />
<line x1="320.964" y1="391.839" x2="296.775" y2="364.144" style="stroke:#666666" />
<line x1="202.475" y1="391.488" x2="194.763" y2="411.119" style="stroke:#666666" />
<line x1="194.763" y1="411.119" x2="194.061" y2="439.865" style="stroke:#666666" />
<line x1="223.859" y1="319.623" x2="245.243" y2="313.313" style="stroke:#666666" />
<line x1="266.978" y1="533.114" x2="277.495" y2="518.391" style="stroke:#666666" />
<line x1="312.508" y1="179.797" x2="326.241" y2="198.831" style="stroke:#666666" />
<line x1="86.0891" y1="518.04" x2="86.0891" y2="499.811" style="stroke:#666666" />
<line x1="347.311" y1="203.704" x2="326.241" y2="198.831" style="stroke:#666666" />
<line x1="340.242" y1="161.244" x2="349.338" y2="135.582" style="stroke:#666666" />
<line x1="340.242" y1="161.244" x2="318.066" y2="148.927" style="stroke:#666666" />
<line x1="86.0891" y1="499.811" x2="68.9117" y2="494.553" style="stroke:#666666" />
<circle cx="235.427" cy="375.012" r="2" fill="rgb(0%, 41%, 71%)" />
<circle cx="302.384" cy="430.05" r="2" fill="rgb(0%, 41%, 71%)" />
<circle cx="51.7343" cy="443.371" r="2" fill="rgb(91%, 42%, 9%)" />
<circle cx="100.462" cy="305.952" r="2" fill="rgb(91%, 42%, 9%)" />
<circle cx="272.937" cy="448.629" r="2" fill="rgb(0%, 41%, 71%)" />
<circle cx="212.291" cy="545.734" r="2" fill="rgb(91%, 42%, 9%)" />
<circle cx="240.335" cy="552.395" r="2" fill="rgb(91%, 42%, 9%)" />
<circle cx="306.942" cy="325.583" r="2" fill="rgb(78%, 0%, 0%)" />
<circle cx="210.187" cy="366.949" r="2" fill="rgb(91%, 42%, 9%)" />
<circle cx="239.634" cy="466.508" r="2" fill="rgb(0%, 41%, 71%)" />
<circle cx="103.968" cy="534.166" r="2" fill="rgb(91%, 42%, 9%)" />
<circle cx="293.62" cy="495.604" r="2" fill="rgb(78%, 0%, 0%)" />
<circle cx="92.7498" cy="357.834" r="2" fill="rgb(91%, 42%, 9%)" />
<circle cx="261.369" cy="382.023" r="2" fill="rgb(0%, 41%, 71%)" />
<circle cx="113.783" cy="426.895" r="2" fill="rgb(91%, 42%, 9%)" />
<circle cx="212.291" cy="281.062" r="2" fill="rgb(91%, 42%, 9%)" />
<circle cx="184.246" cy="348.019" r="2" fill="rgb(91%, 42%, 9%)" />
<circle cx="117.639" cy="486.49" r="2" fill="rgb(91%, 42%, 9%)" />
<circle cx="45.7748" cy="487.541" r="2" fill="rgb(91%, 42%, 9%)" />
<circle cx="212.641" cy="187.463" r="2" fill="rgb(78%, 0%, 0%)" />
<circle cx="332.532" cy="457.393" r="2" fill="rgb(78%, 0%, 0%)" />
<circle cx="239.634" cy="486.139" r="2" fill="rgb(0%, 41%, 71%)" />
<circle cx="141.127" cy="509.276" r="2" fill="rgb(91%, 42%, 9%)" />
<circle cx="164.264" cy="196.227" r="2" fill="rgb(78%, 0%, 0%)" />
<circle cx="218.951" cy="231.633" r="2" fill="rgb(91%, 42%, 9%)" />
<circle cx="92.7498" cy="551.694" r="2" fill="rgb(91%, 42%, 9%)" />
<circle cx="166.367" cy="514.184" r="2" fill="rgb(91%, 42%, 9%)" />
<circle cx="184.596" cy="419.883" r="2" fill="rgb(91%, 42%, 9%)" />
<circle cx="300.982" cy="410.418" r="2" fill="rgb(0%, 41%, 71%)" />
<circle cx="128.857" cy="359.587" r="2" fill="rgb(91%, 42%, 9%)" />
<circle cx="143.581" cy="484.036" r="2" fill="rgb(91%, 42%, 9%)" />
<circle cx="273.288" cy="419.883" r="2" fill="rgb(0%, 41%, 71%)" />
<circle cx="209.837" cy="432.504" r="2" fill="rgb(91%, 42%, 9%)" />
<circle cx="122.547" cy="244.954" r="2" fill="rgb(91%, 42%, 9%)" />
<circle cx="254.358" cy="411.119" r="2" fill="rgb(0%, 41%, 71%)" />
<circle cx="85.7386" cy="565.716" r="2" fill="rgb(78%, 0%, 0%)" />
<circle cx="277.277" cy="101.976" r="2" fill="rgb(70%, 91%, 12%)" />
<circle cx="128.507" cy="455.29" r="2" fill="rgb(91%, 42%, 9%)" />
<circle cx="151.644" cy="172.739" r="2" fill="rgb(78%, 0%, 0%)" />
<circle cx="203.176" cy="491.047" r="2" fill="rgb(91%, 42%, 9%)" />
<circle cx="93.1003" cy="277.206" r="2" fill="rgb(91%, 42%, 9%)" />
<circle cx="141.828" cy="562.561" r="2" fill="rgb(91%, 42%, 9%)" />
<circle cx="104.318" cy="264.936" r="2" fill="rgb(91%, 42%, 9%)" />
<circle cx="182.758" cy="159.919" r="2" fill="rgb(70%, 91%, 12%)" />
<circle cx="256.11" cy="347.318" r="2" fill="rgb(0%, 41%, 71%)" />
<circle cx="36.6603" cy="522.247" r="2" fill="rgb(91%, 42%, 9%)" />
<circle cx="200.371" cy="263.183" r="2" fill="rgb(91%, 42%, 9%)" />
<circle cx="159.005" cy="492.099" r="2" fill="rgb(91%, 42%, 9%)" />
<circle cx="360.148" cy="168.344" r="2" fill="rgb(69%, 33%, 82%)" />
<circle cx="338.097" cy="175.274" r="2" fill="rgb(69%, 33%, 82%)" />
<circle cx="187.401" cy="297.188" r="2" fill="rgb(91%, 42%, 9%)" />
<circle cx="202.475" cy="371.506" r="2" fill="rgb(91%, 42%, 9%)" />
<circle cx="231.571" cy="403.057" r="2" fill="rgb(0%, 41%, 71%)" />
<circle cx="261.018" cy="300.693" r="2" fill="rgb(91%, 42%, 9%)" />
<circle cx="176.533" cy="370.104" r="2" fill="rgb(91%, 42%, 9%)" />
<circle cx="173.378" cy="474.921" r="2" fill="rgb(91%, 42%, 9%)" />
<circle cx="298.962" cy="113.279" r="2" fill="rgb(70%, 91%, 12%)" />
<circle cx="364.97" cy="85.216" r="2" fill="rgb(70%, 91%, 12%)" />
<circle cx="95.9048" cy="446.526" r="2" fill="rgb(91%, 42%, 9%)" />
<circle cx="332.804" cy="213.917" r="2" fill="rgb(69%, 33%, 82%)" />
<circle cx="326.845" cy="231.095" r="2" fill="rgb(69%, 33%, 82%)" />
<circle cx="246.295" cy="525.752" r="2" fill="rgb(91%, 42%, 9%)" />
<circle cx="251.203" cy="263.534" r="2" fill="rgb(91%, 42%, 9%)" />
<circle cx="235.077" cy="446.876" r="2" fill="rgb(0%, 41%, 71%)" />
<circle cx="189.855" cy="521.896" r="2" fill="rgb(91%, 42%, 9%)" />
<circle cx="75.5724" cy="407.614" r="2" fill="rgb(91%, 42%, 9%)" />
<circle cx="212.992" cy="454.939" r="2" fill="rgb(99%, 89%, 70%)" />
<circle cx="167.419" cy="400.603" r="2" fill="rgb(91%, 42%, 9%)" />
<circle cx="243.14" cy="397.448" r="2" fill="rgb(0%, 41%, 71%)" />
<circle cx="125.352" cy="551.694" r="2" fill="rgb(91%, 42%, 9%)" />
<circle cx="132.714" cy="339.956" r="2" fill="rgb(91%, 42%, 9%)" />
<circle cx="276.251" cy="226.486" r="2" fill="rgb(69%, 33%, 82%)" />
<circle cx="314.303" cy="344.513" r="2" fill="rgb(78%, 0%, 0%)" />
<circle cx="148.489" cy="518.391" r="2" fill="rgb(91%, 42%, 9%)" />
<circle cx="348.696" cy="113.409" r="2" fill="rgb(84%, 42%, 81%)" />
<circle cx="234.195" cy="120.948" r="2" fill="rgb(70%, 91%, 12%)" />
<circle cx="234.025" cy="349.07" r="2" fill="rgb(91%, 42%, 9%)" />
<circle cx="220.003" cy="527.856" r="2" fill="rgb(91%, 42%, 9%)" />
<circle cx="272.937" cy="550.642" r="2" fill="rgb(88%, 77%, 0%)" />
<circle cx="117.99" cy="295.785" r="2" fill="rgb(91%, 42%, 9%)" />
<circle cx="170.559" cy="118.972" r="2" fill="rgb(70%, 91%, 12%)" />
<circle cx="219.302" cy="387.632" r="2" fill="rgb(91%, 42%, 9%)" />
<circle cx="242.416" cy="235.792" r="2" fill="rgb(69%, 33%, 82%)" />
<circle cx="271.924" cy="258.622" r="2" fill="rgb(69%, 33%, 82%)" />
<circle cx="93.1003" cy="398.499" r="2" fill="rgb(91%, 42%, 9%)" />
<circle cx="166.017" cy="415.677" r="2" fill="rgb(91%, 42%, 9%)" />
<circle cx="224.911" cy="419.533" r="2" fill="rgb(0%, 41%, 71%)" />
<circle cx="85.0375" cy="440.566" r="2" fill="rgb(91%, 42%, 9%)" />
<circle cx="294.321" cy="478.777" r="2" fill="rgb(0%, 41%, 71%)" />
<circle cx="17.3795" cy="398.499" r="2" fill="rgb(91%, 42%, 9%)" />
<circle cx="273.288" cy="500.161" r="2" fill="rgb(78%, 0%, 0%)" />
<circle cx="184.246" cy="544.683" r="2" fill="rgb(91%, 42%, 9%)" />
<circle cx="124.651" cy="319.623" r="2" fill="rgb(91%, 42%, 9%)" />
<circle cx="247.346" cy="206.743" r="2" fill="rgb(91%, 42%, 9%)" />
<circle cx="60.1478" cy="557.303" r="2" fill="rgb(91%, 42%, 9%)" />
<circle cx="58.7455" cy="475.272" r="2" fill="rgb(91%, 42%, 9%)" />
<circle cx="289.764" cy="384.477" r="2" fill="rgb(0%, 41%, 71%)" />
<circle cx="121.145" cy="572.727" r="2" fill="rgb(91%, 42%, 9%)" />
<circle cx="232.974" cy="275.453" r="2" fill="rgb(91%, 42%, 9%)" />
<circle cx="168.821" cy="186.06" r="2" fill="rgb(78%, 0%, 0%)" />
<circle cx="283.743" cy="207.201" r="2" fill="rgb(69%, 33%, 82%)" />
<circle cx="268.731" cy="267.39" r="2" fill="rgb(88%, 77%, 0%)" />
<circle cx="363.861" cy="151.145" r="2" fill="rgb(84%, 42%, 81%)" />
<circle cx="187.05" cy="485.087" r="2" fill="rgb(91%, 42%, 9%)" />
<circle cx="128.156" cy="476.674" r="2" fill="rgb(91%, 42%, 9%)" />
<circle cx="354.693" cy="64.663" r="2" fill="rgb(70%, 91%, 12%)" />
<circle cx="88.8936" cy="487.191" r="2" fill="rgb(91%, 42%, 9%)" />
<circle cx="315.258" cy="165.693" r="2" fill="rgb(69%, 33%, 82%)" />
<circle cx="301.768" cy="191.064" r="2" fill="rgb(69%, 33%, 82%)" />
<circle cx="267.344" cy="219.129" r="2" fill="rgb(69%, 33%, 82%)" />
<circle cx="142.529" cy="432.153" r="2" fill="rgb(91%, 42%, 9%)" />
<circle cx="237.752" cy="132.806" r="2" fill="rgb(70%, 91%, 12%)" />
<circle cx="60.1478" cy="457.043" r="2" fill="rgb(91%, 42%, 9%)" />
<circle cx="250.795" cy="87.7467" r="2" fill="rgb(70%, 91%, 12%)" />
<circle cx="308.107" cy="27.2727" r="2" fill="rgb(70%, 91%, 12%)" />
<circle cx="31.0513" cy="544.332" r="2" fill="rgb(91%, 42%, 9%)" />
<circle cx="235.427" cy="514.534" r="2" fill="rgb(91%, 42%, 9%)" />
<circle cx="175.131" cy="498.759" r="2" fill="rgb(91%, 42%, 9%)" />
<circle cx="288.739" cy="66.0078" r="2" fill="rgb(70%, 91%, 12%)" />
<circle cx="266.605" cy="143.873" r="2" fill="rgb(70%, 91%, 12%)" />
<circle cx="78.7274" cy="473.87" r="2" fill="rgb(91%, 42%, 9%)" />
<circle cx="350.06" cy="383.776" r="2" fill="rgb(80%, 50%, 10%)" />
<circle cx="324.119" cy="364.495" r="2" fill="rgb(80%, 50%, 10%)" />
<circle cx="345.152" cy="352.927" r="2" fill="rgb(80%, 50%, 10%)" />
<circle cx="337.09" cy="374.311" r="2" fill="rgb(80%, 50%, 10%)" />
<circle cx="353.215" cy="432.153" r="2" fill="rgb(80%, 50%, 10%)" />
<circle cx="354.968" cy="413.223" r="2" fill="rgb(80%, 50%, 10%)" />
<circle cx="334.285" cy="405.16" r="2" fill="rgb(80%, 50%, 10%)" />
<circle cx="120.444" cy="524.701" r="2" fill="rgb(91%, 42%, 9%)" />
<circle cx="27.8963" cy="447.578" r="2" fill="rgb(91%, 42%, 9%)" />
<circle cx="254.358" cy="366.949" r="2" fill="rgb(0%, 41%, 71%)" />
<circle cx="206.682" cy="339.255" r="2" fill="rgb(91%, 42%, 9%)" />
<circle cx="154.098" cy="546.085" r="2" fill="rgb(91%, 42%, 9%)" />
<circle cx="114.835" cy="372.558" r="2" fill="rgb(91%, 42%, 9%)" />
<circle cx="302.018" cy="219.509" r="2" fill="rgb(69%, 33%, 82%)" />
<circle cx="237.18" cy="538.372" r="2" fill="rgb(91%, 42%, 9%)" />
<circle cx="250.501" cy="434.957" r="2" fill="rgb(0%, 41%, 71%)" />
<circle cx="123.95" cy="269.143" r="2" fill="rgb(91%, 42%, 9%)" />
<circle cx="258.564" cy="471.416" r="2" fill="rgb(0%, 41%, 71%)" />
<circle cx="166.017" cy="237.943" r="2" fill="rgb(91%, 42%, 9%)" />
<circle cx="297.562" cy="172.144" r="2" fill="rgb(69%, 33%, 82%)" />
<circle cx="23.6896" cy="502.615" r="2" fill="rgb(78%, 0%, 0%)" />
<circle cx="194.763" cy="354.679" r="2" fill="rgb(91%, 42%, 9%)" />
<circle cx="270.834" cy="357.834" r="2" fill="rgb(0%, 41%, 71%)" />
<circle cx="161.459" cy="452.485" r="2" fill="rgb(91%, 42%, 9%)" />
<circle cx="141.127" cy="397.097" r="2" fill="rgb(91%, 42%, 9%)" />
<circle cx="151.293" cy="351.875" r="2" fill="rgb(91%, 42%, 9%)" />
<circle cx="21.2357" cy="434.957" r="2" fill="rgb(91%, 42%, 9%)" />
<circle cx="46.4759" cy="424.441" r="2" fill="rgb(91%, 42%, 9%)" />
<circle cx="228.416" cy="214.105" r="2" fill="rgb(91%, 42%, 9%)" />
<circle cx="276.793" cy="463.703" r="2" fill="rgb(0%, 41%, 71%)" />
<circle cx="269.432" cy="331.192" r="2" fill="rgb(0%, 41%, 71%)" />
<circle cx="160.408" cy="270.545" r="2" fill="rgb(91%, 42%, 9%)" />
<circle cx="132.012" cy="440.566" r="2" fill="rgb(91%, 42%, 9%)" />
<circle cx="275.742" cy="316.468" r="2" fill="rgb(0%, 41%, 71%)" />
<circle cx="70.314" cy="384.126" r="2" fill="rgb(91%, 42%, 9%)" />
<circle cx="88.8936" cy="460.899" r="2" fill="rgb(91%, 42%, 9%)" />
<circle cx="161.459" cy="429.349" r="2" fill="rgb(91%, 42%, 9%)" />
<circle cx="106.071" cy="237.242" r="2" fill="rgb(91%, 42%, 9%)" />
<circle cx="189.154" cy="505.42" r="2" fill="rgb(91%, 42%, 9%)" />
<circle cx="243.14" cy="333.646" r="2" fill="rgb(91%, 42%, 9%)" />
<circle cx="171.275" cy="436.36" r="2" fill="rgb(91%, 42%, 9%)" />
<circle cx="197.216" cy="564.314" r="2" fill="rgb(78%, 0%, 0%)" />
<circle cx="291.517" cy="334.347" r="2" fill="rgb(78%, 0%, 0%)" />
<circle cx="217.899" cy="482.283" r="2" fill="rgb(91%, 42%, 9%)" />
<circle cx="227.365" cy="498.759" r="2" fill="rgb(91%, 42%, 9%)" />
<circle cx="263.823" cy="492.099" r="2" fill="rgb(0%, 41%, 71%)" />
<circle cx="203.527" cy="309.107" r="2" fill="rgb(91%, 42%, 9%)" />
<circle cx="122.197" cy="406.913" r="2" fill="rgb(91%, 42%, 9%)" />
<circle cx="55.2399" cy="534.166" r="2" fill="rgb(91%, 42%, 9%)" />
<circle cx="161.81" cy="322.428" r="2" fill="rgb(91%, 42%, 9%)" />
<circle cx="202.179" cy="138.734" r="2" fill="rgb(70%, 91%, 12%)" />
<circle cx="322.717" cy="420.234" r="2" fill="rgb(0%, 41%, 71%)" />
<circle cx="171.976" cy="377.466" r="2" fill="rgb(91%, 42%, 9%)" />
<circle cx="140.075" cy="419.182" r="2" fill="rgb(91%, 42%, 9%)" />
<circle cx="322.678" cy="94.7021" r="2" fill="rgb(70%, 91%, 12%)" />
<circle cx="190.906" cy="384.126" r="2" fill="rgb(91%, 42%, 9%)" />
<circle cx="208.382" cy="66.4379" r="2" fill="rgb(99%, 89%, 70%)" />
<circle cx="240.335" cy="293.331" r="2" fill="rgb(91%, 42%, 9%)" />
<circle cx="190.205" cy="462.301" r="2" fill="rgb(91%, 42%, 9%)" />
<circle cx="172.677" cy="532.413" r="2" fill="rgb(91%, 42%, 9%)" />
<circle cx="294.053" cy="238.952" r="2" fill="rgb(69%, 33%, 82%)" />
<circle cx="88.8936" cy="258.626" r="2" fill="rgb(91%, 42%, 9%)" />
<circle cx="144.282" cy="384.827" r="2" fill="rgb(91%, 42%, 9%)" />
<circle cx="221.405" cy="248.81" r="2" fill="rgb(91%, 42%, 9%)" />
<circle cx="273.989" cy="400.252" r="2" fill="rgb(0%, 41%, 71%)" />
<circle cx="147.437" cy="471.766" r="2" fill="rgb(91%, 42%, 9%)" />
<circle cx="98.3587" cy="508.925" r="2" fill="rgb(91%, 42%, 9%)" />
<circle cx="284.155" cy="541.527" r="2" fill="rgb(88%, 77%, 0%)" />
<circle cx="288.011" cy="554.148" r="2" fill="rgb(88%, 77%, 0%)" />
<circle cx="234.376" cy="566.417" r="2" fill="rgb(91%, 42%, 9%)" />
<circle cx="203.527" cy="239.345" r="2" fill="rgb(91%, 42%, 9%)" />
<circle cx="144.983" cy="532.062" r="2" fill="rgb(91%, 42%, 9%)" />
<circle cx="100.112" cy="478.777" r="2" fill="rgb(91%, 42%, 9%)" />
<circle cx="263.122" cy="457.744" r="2" fill="rgb(0%, 41%, 71%)" />
<circle cx="302.384" cy="456.342" r="2" fill="rgb(0%, 41%, 71%)" />
<circle cx="139.725" cy="500.863" r="2" fill="rgb(91%, 42%, 9%)" />
<circle cx="173.729" cy="560.808" r="2" fill="rgb(78%, 0%, 0%)" />
<circle cx="320.964" cy="391.839" r="2" fill="rgb(0%, 41%, 71%)" />
<circle cx="219.57" cy="109.486" r="2" fill="rgb(70%, 91%, 12%)" />
<circle cx="300.939" cy="84.4258" r="2" fill="rgb(70%, 91%, 12%)" />
<circle cx="202.475" cy="391.488" r="2" fill="rgb(91%, 42%, 9%)" />
<circle cx="228.265" cy="49.8021" r="2" fill="rgb(70%, 91%, 12%)" />
<circle cx="194.763" cy="411.119" r="2" fill="rgb(91%, 42%, 9%)" />
<circle cx="223.859" cy="319.623" r="2" fill="rgb(91%, 42%, 9%)" />
<circle cx="17.3795" cy="418.131" r="2" fill="rgb(91%, 42%, 9%)" />
<circle cx="63.6534" cy="257.574" r="2" fill="rgb(91%, 42%, 9%)" />
<circle cx="252.254" cy="280.361" r="2" fill="rgb(91%, 42%, 9%)" />
<circle cx="213.693" cy="509.627" r="2" fill="rgb(91%, 42%, 9%)" />
<circle cx="153.046" cy="366.949" r="2" fill="rgb(91%, 42%, 9%)" />
<circle cx="99.761" cy="378.517" r="2" fill="rgb(91%, 42%, 9%)" />
<circle cx="266.978" cy="533.114" r="2" fill="rgb(91%, 42%, 9%)" />
<circle cx="163.563" cy="338.554" r="2" fill="rgb(91%, 42%, 9%)" />
<circle cx="245.594" cy="227.426" r="2" fill="rgb(91%, 42%, 9%)" />
<circle cx="92.7498" cy="423.038" r="2" fill="rgb(91%, 42%, 9%)" />
<circle cx="312.508" cy="179.797" r="2" fill="rgb(69%, 33%, 82%)" />
<circle cx="217.198" cy="302.095" r="2" fill="rgb(91%, 42%, 9%)" />
<circle cx="277.495" cy="518.391" r="2" fill="rgb(91%, 42%, 9%)" />
<circle cx="227.715" cy="173.44" r="2" fill="rgb(78%, 0%, 0%)" />
<circle cx="86.0891" cy="518.04" r="2" fill="rgb(91%, 42%, 9%)" />
<circle cx="347.311" cy="203.704" r="2" fill="rgb(69%, 33%, 82%)" />
<circle cx="194.061" cy="439.865" r="2" fill="rgb(91%, 42%, 9%)" />
<circle cx="112.381" cy="466.157" r="2" fill="rgb(91%, 42%, 9%)" />
<circle cx="245.243" cy="313.313" r="2" fill="rgb(91%, 42%, 9%)" />
<circle cx="340.242" cy="161.244" r="2" fill="rgb(69%, 33%, 82%)" />
<circle cx="263.001" cy="242.367" r="2" fill="rgb(69%, 33%, 82%)" />
<circle cx="349.338" cy="135.582" r="2" fill="rgb(84%, 42%, 81%)" />
<circle cx="270.483" cy="195.525" r="2" fill="rgb(69%, 33%, 82%)" />
<circle cx="200.021" cy="330.14" r="2" fill="rgb(91%, 42%, 9%)" />
<circle cx="125.352" cy="505.42" r="2" fill="rgb(91%, 42%, 9%)" />
<circle cx="102.215" cy="224.271" r="2" fill="rgb(91%, 42%, 9%)" />
<circle cx="326.241" cy="198.831" r="2" fill="rgb(69%, 33%, 82%)" />
<circle cx="51.0332" cy="507.173" r="2" fill="rgb(91%, 42%, 9%)" />
<circle cx="296.775" cy="364.144" r="2" fill="rgb(0%, 41%, 71%)" />
<circle cx="205.63" cy="472.818" r="2" fill="rgb(91%, 42%, 9%)" />
<circle cx="42.2692" cy="466.157" r="2" fill="rgb(91%, 42%, 9%)" />
<circle cx="110.628" cy="332.945" r="2" fill="rgb(91%, 42%, 9%)" />
<circle cx="318.066" cy="148.927" r="2" fill="rgb(69%, 33%, 82%)" />
<circle cx="86.0891" cy="499.811" r="2" fill="rgb(91%, 42%, 9%)" />
<circle cx="68.9117" cy="494.553" r="2" fill="rgb(91%, 42%, 9%)" />
</svg>
