<?xml version="1.0" encoding="UTF-8" standalone="no"?>
<!-- Created with Inkscape (http://www.inkscape.org/) -->

<svg
   xmlns:dc="http://purl.org/dc/elements/1.1/"
   xmlns:cc="http://creativecommons.org/ns#"
   xmlns:rdf="http://www.w3.org/1999/02/22-rdf-syntax-ns#"
   xmlns:svg="http://www.w3.org/2000/svg"
   xmlns="http://www.w3.org/2000/svg"
   version="1.1"
   width="280"
   height="280"
   id="svg2">
  <defs
     id="defs4" />
  <metadata
     id="metadata7">
    <rdf:RDF>
      <cc:Work
         rdf:about="">
        <dc:format>image/svg+xml</dc:format>
        <dc:type
           rdf:resource="http://purl.org/dc/dcmitype/StillImage" />
        <dc:title></dc:title>
      </cc:Work>
    </rdf:RDF>
  </metadata>
  <g
     transform="translate(0,-772.36218)"
     id="layer1">
    <path
       d="m 136.9375,887.11218 -43.4375,-21.75 14,28.3125 6.4375,-0.8125 -7.0625,-14.125 23.4375,11.625 z"
       id="path3884"
       style="fill:none;stroke:#333333;stroke-width:1;stroke-miterlimit:4;stroke-opacity:1;stroke-dasharray:none" />
    <path
       d="m 147.625,885.11218 -16.0625,8 -0.75,5.9375 3.0625,-0.4375 14.75,-7.375 z"
       id="path3886"
       style="fill:none;stroke:#333333;stroke-width:1;stroke-miterlimit:4;stroke-opacity:1;stroke-dasharray:none" />
    <path
       d="m 125.25,908.73718 1.5625,-3.125 1.8125,-12.6875 -5.25,-2.5 -1.5625,11.375 z"
       id="path3888"
       style="fill:none;stroke:#333333;stroke-width:1;stroke-miterlimit:4;stroke-opacity:1;stroke-dasharray:none" />
    <path
       d="m 118.875,900.79968 0.875,-5.75 -118.75,17.0625 105.125,14.875 2.5625,-5.1875 -67.8125,-9.6875 z"
       id="path3890"
       style="fill:none;stroke:#333333;stroke-width:1;stroke-miterlimit:4;stroke-opacity:1;stroke-dasharray:none" />
    <path
       d="m 143.56167,937.11302 43.4375,21.75 -14,-28.3125 -6.4375,0.8125 7.0625,14.125 -23.4375,-11.625 z"
       id="path3978"
       style="fill:none;stroke:#333333;stroke-width:1;stroke-miterlimit:4;stroke-opacity:1;stroke-dasharray:none" />
    <path
       d="m 132.87417,939.11302 16.0625,-8 0.75,-5.9375 -3.0625,0.4375 -14.75,7.375 z"
       id="path3980"
       style="fill:none;stroke:#333333;stroke-width:1;stroke-miterlimit:4;stroke-opacity:1;stroke-dasharray:none" />
    <path
       d="m 155.24917,915.48802 -1.5625,3.125 -1.8125,12.6875 5.25,2.5 1.5625,-11.375 z"
       id="path3982"
       style="fill:none;stroke:#333333;stroke-width:1;stroke-miterlimit:4;stroke-opacity:1;stroke-dasharray:none" />
    <path
       d="m 161.62417,923.42552 -0.875,5.75 118.75,-17.0625 -105.125,-14.875 -2.5625,5.1875 67.8125,9.6875 z"
       id="path3985"
       style="fill:none;stroke:#333333;stroke-width:1;stroke-miterlimit:4;stroke-opacity:1;stroke-dasharray:none" />
    <path
       d="m 115.24917,915.42468 -21.75,43.4375 28.3125,-14 -0.8125,-6.4375 -14.125,7.0625 11.625,-23.4375 z"
       id="path3987"
       style="fill:none;stroke:#333333;stroke-width:1;stroke-miterlimit:4;stroke-opacity:1;stroke-dasharray:none" />
    <path
       d="m 113.24917,904.73718 8,16.0625 5.9375,0.75 -0.4375,-3.0625 -7.375,-14.75 z"
       id="path3989"
       style="fill:none;stroke:#333333;stroke-width:1;stroke-miterlimit:4;stroke-opacity:1;stroke-dasharray:none" />
    <path
       d="m 136.87417,927.11218 -3.125,-1.5625 -12.6875,-1.8125 -2.5,5.25 11.375,1.5625 z"
       id="path3991"
       style="fill:none;stroke:#333333;stroke-width:1;stroke-miterlimit:4;stroke-opacity:1;stroke-dasharray:none" />
    <path
       d="m 128.93667,933.48718 -5.75,-0.875 17.0625,118.75002 14.875,-105.12502 -5.1875,-2.5625 -9.6875,67.81252 z"
       id="path3993"
       style="fill:none;stroke:#333333;stroke-width:1;stroke-miterlimit:4;stroke-opacity:1;stroke-dasharray:none" />
    <path
       d="m 165.25,908.80052 21.75,-43.4375 -28.3125,14 0.8125,6.4375 14.125,-7.0625 -11.625,23.4375 z"
       id="path3995"
       style="fill:none;stroke:#333333;stroke-width:1;stroke-miterlimit:4;stroke-opacity:1;stroke-dasharray:none" />
    <path
       d="m 167.25,919.48802 -8,-16.0625 -5.9375,-0.75 0.4375,3.0625 7.375,14.75 z"
       id="path3997"
       style="fill:none;stroke:#333333;stroke-width:1;stroke-miterlimit:4;stroke-opacity:1;stroke-dasharray:none" />
    <path
       d="m 143.625,897.11302 3.125,1.5625 12.6875,1.8125 2.5,-5.25 -11.375,-1.5625 z"
       id="path3999"
       style="fill:none;stroke:#333333;stroke-width:1;stroke-miterlimit:4;stroke-opacity:1;stroke-dasharray:none" />
    <path
       d="m 151.5625,890.73802 5.75,0.875 -17.0625,-118.75 -14.875,105.125 5.1875,2.5625 9.6875,-67.8125 z"
       id="path4001"
       style="fill:none;stroke:#333333;stroke-width:1;stroke-miterlimit:4;stroke-opacity:1;stroke-dasharray:none" />
  </g>
</svg>
