<?xml version="1.0" encoding="UTF-8" standalone="no"?>
<!-- Created with Inkscape (http://www.inkscape.org/) -->

<svg
   xmlns:dc="http://purl.org/dc/elements/1.1/"
   xmlns:cc="http://creativecommons.org/ns#"
   xmlns:rdf="http://www.w3.org/1999/02/22-rdf-syntax-ns#"
   xmlns:svg="http://www.w3.org/2000/svg"
   xmlns="http://www.w3.org/2000/svg"
   version="1.1"
   width="100"
   height="380"
   id="svg2">
  <defs
     id="defs4" />
  <metadata
     id="metadata7">
    <rdf:RDF>
      <cc:Work
         rdf:about="">
        <dc:format>image/svg+xml</dc:format>
        <dc:type
           rdf:resource="http://purl.org/dc/dcmitype/StillImage" />
        <dc:title></dc:title>
      </cc:Work>
    </rdf:RDF>
  </metadata>
  <g
     transform="translate(0,-672.36218)"
     id="layer1">
    <path
       d="m -10,772.36218 30,0 10,10 0,60 10,10 0,30 -10,10 -40,0 z"
       id="path2987"
       style="fill:#dddddd;fill-opacity:1;stroke:#333333;stroke-width:1.20000005;stroke-linecap:round;stroke-linejoin:miter;stroke-miterlimit:4;stroke-opacity:1;stroke-dasharray:none;stroke-dashoffset:0" />
    <path
       d="m 10,912.36218 31.666666,0 8.333334,10 0,10 -8.333334,10 -31.666666,0 z"
       id="path3757"
       style="fill:#dddddd;fill-opacity:1;stroke:#333333;stroke-width:1.20000005;stroke-linecap:round;stroke-linejoin:miter;stroke-miterlimit:4;stroke-opacity:1;stroke-dasharray:none;stroke-dashoffset:0" />
    <path
       d="m 10,992.36218 0,20.00002 30,0 10,10 0,40 20,0 0,-50 -20,-20.00002 z"
       id="path3759"
       style="fill:#dddddd;fill-opacity:1;stroke:#333333;stroke-width:1.20000005;stroke-linecap:round;stroke-linejoin:miter;stroke-miterlimit:4;stroke-opacity:1;stroke-dasharray:none;stroke-dashoffset:0" />
    <path
       d="m -10,952.36218 50.000001,0 0,10 -50.000001,0 z"
       id="path3761"
       style="fill:#dddddd;fill-opacity:1;stroke:#333333;stroke-width:1.20000005;stroke-linecap:round;stroke-linejoin:miter;stroke-miterlimit:4;stroke-opacity:1;stroke-dasharray:none;stroke-dashoffset:0" />
    <path
       d="m -10,972.36218 60,0 0,10 -60,0 z"
       id="path3763"
       style="fill:#dddddd;fill-opacity:1;stroke:#333333;stroke-width:1.20000005;stroke-linecap:round;stroke-linejoin:miter;stroke-miterlimit:4;stroke-opacity:1;stroke-dasharray:none;stroke-dashoffset:0" />
    <path
       d="m -10,762.36218 30,0 0,-20 -30,0 z"
       id="path3767"
       style="fill:#dddddd;fill-opacity:1;stroke:#333333;stroke-width:1.20000005;stroke-linecap:round;stroke-linejoin:miter;stroke-miterlimit:4;stroke-opacity:1;stroke-dasharray:none;stroke-dashoffset:0" />
    <path
       d="m -10,722.36218 30,0 0,-10 -30,0 z"
       id="path3769"
       style="fill:#dddddd;fill-opacity:1;stroke:#333333;stroke-width:1.20000005;stroke-linecap:round;stroke-linejoin:miter;stroke-miterlimit:4;stroke-opacity:1;stroke-dasharray:none;stroke-dashoffset:0" />
    <path
       d="m 4,712.36218 0,-8 -1,-1 -3,0"
       id="path3771"
       style="fill:none;stroke:#000000;stroke-width:1.20000005;stroke-linecap:round;stroke-linejoin:miter;stroke-miterlimit:4;stroke-opacity:0.13333333;stroke-dasharray:none;stroke-dashoffset:0" />
    <path
       d="m 8,712.36218 0,-9 -4,-4 -4,0"
       id="path3773"
       style="fill:none;stroke:#000000;stroke-width:1.20000005;stroke-linecap:round;stroke-linejoin:miter;stroke-miterlimit:4;stroke-opacity:0.13333333;stroke-dasharray:none;stroke-dashoffset:0" />
    <path
       d="m 12,712.36218 0,-10 -10,-10 0,-9 -2,-2"
       id="path3775"
       style="fill:none;stroke:#000000;stroke-width:1.20000005;stroke-linecap:round;stroke-linejoin:miter;stroke-miterlimit:4;stroke-opacity:0.26666667;stroke-dasharray:none;stroke-dashoffset:0" />
    <path
       d="m 16,712.36218 0,-11 -10,-10 0,-9 -6,-6"
       id="path3777"
       style="fill:none;stroke:#000000;stroke-width:1.20000005;stroke-linecap:round;stroke-linejoin:miter;stroke-miterlimit:4;stroke-opacity:0.26666667;stroke-dasharray:none;stroke-dashoffset:0" />
    <path
       d="m 2,722.36218 0,7 8,8 0,5"
       id="path3779"
       style="fill:none;stroke:#000000;stroke-width:1.20000005;stroke-linecap:round;stroke-linejoin:miter;stroke-miterlimit:4;stroke-opacity:0.13333333;stroke-dasharray:none;stroke-dashoffset:0" />
    <path
       d="m 6,722.36218 0,6 8,8 0,6"
       id="path3781"
       style="fill:none;stroke:#000000;stroke-width:1.20000005;stroke-linecap:round;stroke-linejoin:miter;stroke-miterlimit:4;stroke-opacity:0.26666667;stroke-dasharray:none;stroke-dashoffset:0" />
    <path
       d="m 10,722.36218 0,5 8,8 0,7"
       id="path3783"
       style="fill:none;stroke:#000000;stroke-width:1.20000005;stroke-linecap:round;stroke-linejoin:miter;stroke-miterlimit:4;stroke-opacity:0.13333333;stroke-dasharray:none;stroke-dashoffset:0" />
    <path
       d="m 6,742.36218 0,-4 -2,-2 -4,0"
       id="path3785"
       style="fill:none;stroke:#000000;stroke-width:1.20000005;stroke-linecap:round;stroke-linejoin:miter;stroke-miterlimit:4;stroke-opacity:0.26666667;stroke-dasharray:none;stroke-dashoffset:0" />
    <path
       d="m 3,762.36218 0,3 2,2 0,5"
       id="path3787"
       style="fill:none;stroke:#000000;stroke-width:1.20000005;stroke-linecap:round;stroke-linejoin:miter;stroke-miterlimit:4;stroke-opacity:0.26666667;stroke-dasharray:none;stroke-dashoffset:0" />
    <path
       d="m 7,762.36218 0,2 2,2 0,6"
       id="path3789"
       style="fill:none;stroke:#000000;stroke-width:1.20000005;stroke-linecap:round;stroke-linejoin:miter;stroke-miterlimit:4;stroke-opacity:0.13333333;stroke-dasharray:none;stroke-dashoffset:0" />
    <path
       d="m 13,772.36218 0,-10"
       id="path3793"
       style="fill:none;stroke:#000000;stroke-width:1.20000005;stroke-linecap:round;stroke-linejoin:miter;stroke-miterlimit:4;stroke-opacity:0.26666667;stroke-dasharray:none;stroke-dashoffset:0" />
    <path
       d="m 7,892.36218 0,2 -1,1 -6,0"
       id="path3797"
       style="fill:none;stroke:#000000;stroke-width:1.20000005;stroke-linecap:round;stroke-linejoin:miter;stroke-miterlimit:4;stroke-opacity:0.13333333;stroke-dasharray:none;stroke-dashoffset:0" />
    <path
       d="m 11,892.36218 0,3 -4,4 -7,0"
       id="path3799"
       style="fill:none;stroke:#000000;stroke-width:1.20000005;stroke-linecap:round;stroke-linejoin:miter;stroke-miterlimit:4;stroke-opacity:0.26666667;stroke-dasharray:none;stroke-dashoffset:0" />
    <path
       d="m 15,892.36218 0,7 2,2 0,11"
       id="path3801"
       style="fill:none;stroke:#000000;stroke-width:1.20000005;stroke-linecap:round;stroke-linejoin:miter;stroke-miterlimit:4;stroke-opacity:0.13333333;stroke-dasharray:none;stroke-dashoffset:0" />
    <path
       d="m 19,892.36218 0,6 2,2 0,12"
       id="path3803"
       style="fill:none;stroke:#000000;stroke-width:1.20000005;stroke-linecap:round;stroke-linejoin:miter;stroke-miterlimit:4;stroke-opacity:0.26666667;stroke-dasharray:none;stroke-dashoffset:0" />
    <path
       d="m 25,892.36218 0,12 3,3 0,5"
       id="path3805"
       style="fill:none;stroke:#000000;stroke-width:1.20000005;stroke-linecap:round;stroke-linejoin:miter;stroke-miterlimit:4;stroke-opacity:0.13333333;stroke-dasharray:none;stroke-dashoffset:0" />
    <path
       d="m 0,908.36218 12,0 1,1 0,3"
       id="path3807"
       style="fill:none;stroke:#000000;stroke-width:1.20000005;stroke-linecap:round;stroke-linejoin:miter;stroke-miterlimit:4;stroke-opacity:0.26666667;stroke-dasharray:none;stroke-dashoffset:0" />
    <path
       d="m 0,912.36218 3,0 4,4 0,4 1,1 2,0"
       id="path3809"
       style="fill:none;stroke:#000000;stroke-width:1.20000005;stroke-linecap:round;stroke-linejoin:miter;stroke-miterlimit:4;stroke-opacity:0.13333333;stroke-dasharray:none;stroke-dashoffset:0" />
    <path
       d="m 0,916.36218 2,0 1,1 0,4 4,4 3,0"
       id="path3811"
       style="fill:none;stroke:#000000;stroke-width:1.20000005;stroke-linecap:round;stroke-linejoin:miter;stroke-miterlimit:4;stroke-opacity:0.26666667;stroke-dasharray:none;stroke-dashoffset:0" />
    <path
       d="m 12,942.36218 0,4 2,2 0,4"
       id="path3813"
       style="fill:none;stroke:#000000;stroke-width:1.20000005;stroke-linecap:round;stroke-linejoin:miter;stroke-miterlimit:4;stroke-opacity:0.13333333;stroke-dasharray:none;stroke-dashoffset:0" />
    <path
       d="m 16,942.36218 0,3 2,2 0,5"
       id="path3815"
       style="fill:none;stroke:#000000;stroke-width:1.20000005;stroke-linecap:round;stroke-linejoin:miter;stroke-miterlimit:4;stroke-opacity:0.13333333;stroke-dasharray:none;stroke-dashoffset:0" />
    <path
       d="m 20,942.36218 0,2 2,2 0,6"
       id="path3817"
       style="fill:none;stroke:#000000;stroke-width:1.20000005;stroke-linecap:round;stroke-linejoin:miter;stroke-miterlimit:4;stroke-opacity:0.26666667;stroke-dasharray:none;stroke-dashoffset:0" />
    <path
       d="m 26,952.36218 0,-10"
       id="path3819"
       style="fill:none;stroke:#000000;stroke-width:1.20000005;stroke-linecap:round;stroke-linejoin:miter;stroke-miterlimit:4;stroke-opacity:0.26666667;stroke-dasharray:none;stroke-dashoffset:0" />
    <path
       d="m 30,952.36218 0,-7 1,-1 0,-2"
       id="path3821"
       style="fill:none;stroke:#000000;stroke-width:1.20000005;stroke-linecap:round;stroke-linejoin:miter;stroke-miterlimit:4;stroke-opacity:0.13333333;stroke-dasharray:none;stroke-dashoffset:0" />
    <path
       d="m 35,942.36218 0,3 -1,1 0,6"
       id="path3823"
       style="fill:none;stroke:#000000;stroke-width:1.20000005;stroke-linecap:round;stroke-linejoin:miter;stroke-miterlimit:4;stroke-opacity:0.26666667;stroke-dasharray:none;stroke-dashoffset:0" />
    <path
       d="m 14,962.36218 0,2 -1,1 -5,0 -4,4 0,3"
       id="path3825"
       style="fill:none;stroke:#000000;stroke-width:1.20000005;stroke-linecap:round;stroke-linejoin:miter;stroke-miterlimit:4;stroke-opacity:0.13333333;stroke-dasharray:none;stroke-dashoffset:0" />
    <path
       d="m 18,962.36218 0,3 -4,4 -5,0 -1,1 0,2"
       id="path3827"
       style="fill:none;stroke:#000000;stroke-width:1.20000005;stroke-linecap:round;stroke-linejoin:miter;stroke-miterlimit:4;stroke-opacity:0.26666667;stroke-dasharray:none;stroke-dashoffset:0" />
    <path
       d="m 22,962.36218 0,10"
       id="path3829"
       style="fill:none;stroke:#000000;stroke-width:1.20000005;stroke-linecap:round;stroke-linejoin:miter;stroke-miterlimit:4;stroke-opacity:0.13333333;stroke-dasharray:none;stroke-dashoffset:0" />
    <path
       d="m 26,962.36218 0,4 1,1 0,5"
       id="path3831"
       style="fill:none;stroke:#000000;stroke-width:1.20000005;stroke-linecap:round;stroke-linejoin:miter;stroke-miterlimit:4;stroke-opacity:0.26666667;stroke-dasharray:none;stroke-dashoffset:0" />
    <path
       d="m 30,962.36218 0,3 1,1 0,6"
       id="path3833"
       style="fill:none;stroke:#000000;stroke-width:1.20000005;stroke-linecap:round;stroke-linejoin:miter;stroke-miterlimit:4;stroke-opacity:0.26666667;stroke-dasharray:none;stroke-dashoffset:0" />
    <path
       d="m 34,962.36218 0,1 1,1 0,8"
       id="path3835"
       style="fill:none;stroke:#000000;stroke-width:1.20000005;stroke-linecap:round;stroke-linejoin:miter;stroke-miterlimit:4;stroke-opacity:0.13333333;stroke-dasharray:none;stroke-dashoffset:0" />
    <path
       d="m 4,982.36218 0,3 -1,1 -3,0"
       id="path3837"
       style="fill:none;stroke:#000000;stroke-width:1.20000005;stroke-linecap:round;stroke-linejoin:miter;stroke-miterlimit:4;stroke-opacity:0.13333333;stroke-dasharray:none;stroke-dashoffset:0" />
    <path
       d="m 8,982.36218 0,4 -4,4 -4,0"
       id="path3839"
       style="fill:none;stroke:#000000;stroke-width:1.20000005;stroke-linecap:round;stroke-linejoin:miter;stroke-miterlimit:4;stroke-opacity:0.26666667;stroke-dasharray:none;stroke-dashoffset:0" />
    <path
       d="m 22,982.36218 0,5 3,3 0,2"
       id="path3843"
       style="fill:none;stroke:#000000;stroke-width:1.20000005;stroke-linecap:round;stroke-linejoin:miter;stroke-miterlimit:4;stroke-opacity:0.26666667;stroke-dasharray:none;stroke-dashoffset:0" />
    <path
       d="m 27,982.36218 0,5 2,2 0,3"
       id="path3845"
       style="fill:none;stroke:#000000;stroke-width:1.20000005;stroke-linecap:round;stroke-linejoin:miter;stroke-miterlimit:4;stroke-opacity:0.13333333;stroke-dasharray:none;stroke-dashoffset:0" />
    <path
       d="m 31,982.36218 0,4 2,2 0,4"
       id="path3847"
       style="fill:none;stroke:#000000;stroke-width:1.20000005;stroke-linecap:round;stroke-linejoin:miter;stroke-miterlimit:4;stroke-opacity:0.13333333;stroke-dasharray:none;stroke-dashoffset:0" />
    <path
       d="m 35,982.36218 0,3 2,2 0,5"
       id="path3849"
       style="fill:none;stroke:#000000;stroke-width:1.20000005;stroke-linecap:round;stroke-linejoin:miter;stroke-miterlimit:4;stroke-opacity:0.26666667;stroke-dasharray:none;stroke-dashoffset:0" />
    <path
       d="m 10,997.36218 -3,0 -3,3.00002 -4,0"
       id="path3853"
       style="fill:none;stroke:#000000;stroke-width:1.20000005;stroke-linecap:round;stroke-linejoin:miter;stroke-miterlimit:4;stroke-opacity:0.26666667;stroke-dasharray:none;stroke-dashoffset:0" />
    <path
       d="m 10,1001.3622 -2,0 -3,3 -5,0"
       id="path3855"
       style="fill:none;stroke:#000000;stroke-width:1.20000005;stroke-linecap:round;stroke-linejoin:miter;stroke-miterlimit:4;stroke-opacity:0.13333333;stroke-dasharray:none;stroke-dashoffset:0" />
    <path
       d="m 0,1008.3622 10,0"
       id="path3857"
       style="fill:none;stroke:#000000;stroke-width:1.20000005;stroke-linecap:round;stroke-linejoin:miter;stroke-miterlimit:4;stroke-opacity:0.13333333;stroke-dasharray:none;stroke-dashoffset:0" />
    <path
       d="m 14,1012.3622 0,3 -1,1 -13,0"
       id="path3859"
       style="fill:none;stroke:#000000;stroke-width:1.20000005;stroke-linecap:round;stroke-linejoin:miter;stroke-miterlimit:4;stroke-opacity:0.13333333;stroke-dasharray:none;stroke-dashoffset:0" />
    <path
       d="m 18,1012.3622 0,4 -4,4 -14,0"
       id="path3861"
       style="fill:none;stroke:#000000;stroke-width:1.20000005;stroke-linecap:round;stroke-linejoin:miter;stroke-miterlimit:4;stroke-opacity:0.26666667;stroke-dasharray:none;stroke-dashoffset:0" />
    <path
       d="m 22,1012.3622 0,5 -7,7 -15,0"
       id="path3863"
       style="fill:none;stroke:#000000;stroke-width:1.20000005;stroke-linecap:round;stroke-linejoin:miter;stroke-miterlimit:4;stroke-opacity:0.26666667;stroke-dasharray:none;stroke-dashoffset:0" />
    <path
       d="m 50,1031.3622 -9,0 -11,11 -10,0 -5,5 0,5"
       id="path3865"
       style="fill:none;stroke:#000000;stroke-width:1.20000005;stroke-linecap:round;stroke-linejoin:miter;stroke-miterlimit:4;stroke-opacity:0.13333333;stroke-dasharray:none;stroke-dashoffset:0" />
    <path
       d="m 50,1035.3622 -8,0 -11,11 -10,0 -2,2 0,4"
       id="path3867"
       style="fill:none;stroke:#000000;stroke-width:1.20000005;stroke-linecap:round;stroke-linejoin:miter;stroke-miterlimit:4;stroke-opacity:0.26666667;stroke-dasharray:none;stroke-dashoffset:0" />
    <path
       d="m 50,1039.3622 -7,0 -9,9 0,4"
       id="path3869"
       style="fill:none;stroke:#000000;stroke-width:1.20000005;stroke-linecap:round;stroke-linejoin:miter;stroke-miterlimit:4;stroke-opacity:0.26666667;stroke-dasharray:none;stroke-dashoffset:0" />
    <path
       d="m 50,1043.3622 -6,0 -6,6 0,3"
       id="path3871"
       style="fill:none;stroke:#000000;stroke-width:1.20000005;stroke-linecap:round;stroke-linejoin:miter;stroke-miterlimit:4;stroke-opacity:0.13333333;stroke-dasharray:none;stroke-dashoffset:0" />
    <path
       d="m 50,1047.3622 -5,0 -3,3 0,2"
       id="path3873"
       style="fill:none;stroke:#000000;stroke-width:1.20000005;stroke-linecap:round;stroke-linejoin:miter;stroke-miterlimit:4;stroke-opacity:0.13333333;stroke-dasharray:none;stroke-dashoffset:0" />
    <path
       d="m 70,1039.3622 3,0 1,1 0,12"
       id="path3875"
       style="fill:none;stroke:#000000;stroke-width:1.20000005;stroke-linecap:round;stroke-linejoin:miter;stroke-miterlimit:4;stroke-opacity:0.26666667;stroke-dasharray:none;stroke-dashoffset:0" />
    <path
       d="m 70,1035.3622 4,0 4,4 0,13"
       id="path3877"
       style="fill:none;stroke:#000000;stroke-width:1.20000005;stroke-linecap:round;stroke-linejoin:miter;stroke-miterlimit:4;stroke-opacity:0.13333333;stroke-dasharray:none;stroke-dashoffset:0" />
    <path
       d="m 70,1031.3622 5,0 7,7 0,7 7,7"
       id="path3879"
       style="fill:none;stroke:#000000;stroke-width:1.20000005;stroke-linecap:round;stroke-linejoin:miter;stroke-miterlimit:4;stroke-opacity:0.13333333;stroke-dasharray:none;stroke-dashoffset:0" />
    <path
       d="m 70,1027.3622 6,0 10,10 0,7 8,8"
       id="path3881"
       style="fill:none;stroke:#000000;stroke-width:1.20000005;stroke-linecap:round;stroke-linejoin:miter;stroke-miterlimit:4;stroke-opacity:0.26666667;stroke-dasharray:none;stroke-dashoffset:0" />
    <path
       d="m 70,1023.3622 7,0 13,13 0,7 9,9"
       id="path3883"
       style="fill:none;stroke:#000000;stroke-width:1.20000005;stroke-linecap:round;stroke-linejoin:miter;stroke-miterlimit:4;stroke-opacity:0.26666667;stroke-dasharray:none;stroke-dashoffset:0" />
  </g>
</svg>
