<?xml version="1.0" encoding="UTF-8" standalone="no"?>
<!-- Created with Inkscape (http://www.inkscape.org/) -->

<svg
   xmlns:dc="http://purl.org/dc/elements/1.1/"
   xmlns:cc="http://creativecommons.org/ns#"
   xmlns:rdf="http://www.w3.org/1999/02/22-rdf-syntax-ns#"
   xmlns:svg="http://www.w3.org/2000/svg"
   xmlns="http://www.w3.org/2000/svg"
   version="1.1"
   width="200"
   height="400"
   id="svg2">
  <defs
     id="defs4" />
  <metadata
     id="metadata7">
    <rdf:RDF>
      <cc:Work
         rdf:about="">
        <dc:format>image/svg+xml</dc:format>
        <dc:type
           rdf:resource="http://purl.org/dc/dcmitype/StillImage" />
        <dc:title></dc:title>
      </cc:Work>
    </rdf:RDF>
  </metadata>
  <g
     transform="translate(0,-652.36218)"
     id="layer1">
    <g
       id="g3971">
      <path
         d="m 160,1012.3622 0,1 2,2 13,0 3,-3"
         id="path3857"
         style="fill:none;stroke:#000000;stroke-width:1.20000005;stroke-linecap:round;stroke-linejoin:miter;stroke-miterlimit:4;stroke-opacity:0.26666667;stroke-dasharray:none;stroke-dashoffset:0" />
      <path
         d="m 156,1012.3622 0,2 5,5 15,0 7,-7"
         id="path3859"
         style="fill:none;stroke:#000000;stroke-width:1.20000005;stroke-linecap:round;stroke-linejoin:miter;stroke-miterlimit:4;stroke-opacity:0.13333333;stroke-dasharray:none;stroke-dashoffset:0" />
      <path
         d="m 152,1012.3622 0,10 3,3 21,0 16,16 8,0"
         id="path3861"
         style="fill:none;stroke:#000000;stroke-width:1.20000005;stroke-linecap:round;stroke-linejoin:miter;stroke-miterlimit:4;stroke-opacity:0.26666667;stroke-dasharray:none;stroke-dashoffset:0" />
      <path
         d="m 148,1012.3622 0,11 6,6 21,0 16,16 9,0"
         id="path3863"
         style="fill:none;stroke:#000000;stroke-width:1.20000005;stroke-linecap:round;stroke-linejoin:miter;stroke-miterlimit:4;stroke-opacity:0.13333333;stroke-dasharray:none;stroke-dashoffset:0" />
      <path
         d="m 144,1012.3622 0,12 9,9 21,0 16,16 10,0"
         id="path3865"
         style="fill:none;stroke:#000000;stroke-width:1.20000005;stroke-linecap:round;stroke-linejoin:miter;stroke-miterlimit:4;stroke-opacity:0.13333333;stroke-dasharray:none;stroke-dashoffset:0" />
      <path
         d="m 189,1012.3622 0,15 4,4 7,0"
         id="path3867"
         style="fill:none;stroke:#000000;stroke-width:1.20000005;stroke-linecap:round;stroke-linejoin:miter;stroke-miterlimit:4;stroke-opacity:0.26666667;stroke-dasharray:none;stroke-dashoffset:0" />
      <path
         d="m 193,1012.3622 0,14 1,1 6,0"
         id="path3869"
         style="fill:none;stroke:#000000;stroke-width:1.20000005;stroke-linecap:round;stroke-linejoin:miter;stroke-miterlimit:4;stroke-opacity:0.13333333;stroke-dasharray:none;stroke-dashoffset:0" />
      <path
         d="m 130,1012.3622 0,1 -1,1 -11,0 -1,-1 0,-1"
         id="path3871"
         style="fill:none;stroke:#000000;stroke-width:1.20000005;stroke-linecap:round;stroke-linejoin:miter;stroke-miterlimit:4;stroke-opacity:0.13333333;stroke-dasharray:none;stroke-dashoffset:0" />
      <path
         d="m 134,1012.3622 0,2 -4,4 -13,0 -2,-2 -10,0 -2,-2 0,-2"
         id="path3873"
         style="fill:none;stroke:#000000;stroke-width:1.20000005;stroke-linecap:round;stroke-linejoin:miter;stroke-miterlimit:4;stroke-opacity:0.26666667;stroke-dasharray:none;stroke-dashoffset:0" />
    </g>
    <g
       id="g3955">
      <path
         d="m 189,802.36218 0,5 4,4 0,11"
         id="path3821"
         style="fill:none;stroke:#000000;stroke-width:1.20000005;stroke-linecap:round;stroke-linejoin:miter;stroke-miterlimit:4;stroke-opacity:0.13333333;stroke-dasharray:none;stroke-dashoffset:0" />
      <path
         d="m 185,802.36218 0,6 4,4 0,10"
         id="path3825"
         style="fill:none;stroke:#000000;stroke-width:1.20000005;stroke-linecap:round;stroke-linejoin:miter;stroke-miterlimit:4;stroke-opacity:0.26666667;stroke-dasharray:none;stroke-dashoffset:0" />
      <path
         d="m 181,802.36218 0,7 4,4 0,9"
         id="path3827"
         style="fill:none;stroke:#000000;stroke-width:1.20000005;stroke-linecap:round;stroke-linejoin:miter;stroke-miterlimit:4;stroke-opacity:0.13333333;stroke-dasharray:none;stroke-dashoffset:0" />
      <path
         d="m 177,802.36218 0,8 1,1 0,11"
         id="path3829"
         style="fill:none;stroke:#000000;stroke-width:1.20000005;stroke-linecap:round;stroke-linejoin:miter;stroke-miterlimit:4;stroke-opacity:0.26666667;stroke-dasharray:none;stroke-dashoffset:0" />
      <path
         d="m 173,802.36218 0,9 1,1 0,10"
         id="path3831"
         style="fill:none;stroke:#000000;stroke-width:1.20000005;stroke-linecap:round;stroke-linejoin:miter;stroke-miterlimit:4;stroke-opacity:0.26666667;stroke-dasharray:none;stroke-dashoffset:0" />
      <path
         d="m 166,802.36218 3,3 0,7 1,1 0,9"
         id="path3833"
         style="fill:none;stroke:#000000;stroke-width:1.20000005;stroke-linecap:round;stroke-linejoin:miter;stroke-miterlimit:4;stroke-opacity:0.26666667;stroke-dasharray:none;stroke-dashoffset:0" />
      <path
         d="m 161,802.36218 4,4 0,7 1,1 0,8"
         id="path3835"
         style="fill:none;stroke:#000000;stroke-width:1.20000005;stroke-linecap:round;stroke-linejoin:miter;stroke-miterlimit:4;stroke-opacity:0.13333333;stroke-dasharray:none;stroke-dashoffset:0" />
      <path
         d="m 162,822.36218 0,-4 -4,-4 -9,0 -5,5 -6,0 -3,3"
         id="path3837"
         style="fill:none;stroke:#000000;stroke-width:1.20000005;stroke-linecap:round;stroke-linejoin:miter;stroke-miterlimit:4;stroke-opacity:0.13333333;stroke-dasharray:none;stroke-dashoffset:0" />
      <path
         d="m 158,822.36218 0,-3 -1,-1 -7,0 -4,4"
         id="path3839"
         style="fill:none;stroke:#000000;stroke-width:1.20000005;stroke-linecap:round;stroke-linejoin:miter;stroke-miterlimit:4;stroke-opacity:0.26666667;stroke-dasharray:none;stroke-dashoffset:0" />
      <path
         d="m 120,802.36218 0,4 -5,5 0,8 3,3"
         id="path3841"
         style="fill:none;stroke:#000000;stroke-width:1.20000005;stroke-linecap:round;stroke-linejoin:miter;stroke-miterlimit:4;stroke-opacity:0.13333333;stroke-dasharray:none;stroke-dashoffset:0" />
      <path
         d="m 116,802.36218 0,3 -5,5 0,10 2,2"
         id="path3845"
         style="fill:none;stroke:#000000;stroke-width:1.20000005;stroke-linecap:round;stroke-linejoin:miter;stroke-miterlimit:4;stroke-opacity:0.26666667;stroke-dasharray:none;stroke-dashoffset:0" />
      <path
         d="m 112,802.36218 0,2 -5,5 0,13"
         id="path3847"
         style="fill:none;stroke:#000000;stroke-width:1.20000005;stroke-linecap:round;stroke-linejoin:miter;stroke-miterlimit:4;stroke-opacity:0.13333333;stroke-dasharray:none;stroke-dashoffset:0" />
      <path
         d="m 99,822.36218 4,-4 0,-11 -2,-2 0,-3"
         id="path3851"
         style="fill:none;stroke:#000000;stroke-width:1.20000005;stroke-linecap:round;stroke-linejoin:miter;stroke-miterlimit:4;stroke-opacity:0.26666667;stroke-dasharray:none;stroke-dashoffset:0" />
      <path
         d="m 94,822.36218 5,-5 0,-9 -6,-6"
         id="path3853"
         style="fill:none;stroke:#000000;stroke-width:1.20000005;stroke-linecap:round;stroke-linejoin:miter;stroke-miterlimit:4;stroke-opacity:0.26666667;stroke-dasharray:none;stroke-dashoffset:0" />
    </g>
    <g
       id="g3927">
      <path
         d="m 198,672.36218 0,-10 -2,-2 0,-8"
         id="path3875"
         style="fill:none;stroke:#000000;stroke-width:1.20000005;stroke-linecap:round;stroke-linejoin:miter;stroke-miterlimit:4;stroke-opacity:0.13333333;stroke-dasharray:none;stroke-dashoffset:0" />
      <path
         d="m 192,652.36218 0,9 2,2 0,9"
         id="path3877"
         style="fill:none;stroke:#000000;stroke-width:1.20000005;stroke-linecap:round;stroke-linejoin:miter;stroke-miterlimit:4;stroke-opacity:0.13333333;stroke-dasharray:none;stroke-dashoffset:0" />
      <path
         d="m 188,652.36218 0,20"
         id="path3879"
         style="fill:none;stroke:#000000;stroke-width:1.20000005;stroke-linecap:round;stroke-linejoin:miter;stroke-miterlimit:4;stroke-opacity:0.26666667;stroke-dasharray:none;stroke-dashoffset:0" />
      <path
         d="m 184,652.36218 0,5 -1,1 0,6 1,1 0,7"
         id="path3881"
         style="fill:none;stroke:#000000;stroke-width:1.20000005;stroke-linecap:round;stroke-linejoin:miter;stroke-miterlimit:4;stroke-opacity:0.13333333;stroke-dasharray:none;stroke-dashoffset:0" />
      <path
         d="m 180,652.36218 0,4 -1,1 0,8 1,1 0,6"
         id="path3883"
         style="fill:none;stroke:#000000;stroke-width:1.20000005;stroke-linecap:round;stroke-linejoin:miter;stroke-miterlimit:4;stroke-opacity:0.26666667;stroke-dasharray:none;stroke-dashoffset:0" />
      <path
         d="m 176,652.36218 0,3 -1,1 0,10 1,1 0,5"
         id="path3885"
         style="fill:none;stroke:#000000;stroke-width:1.20000005;stroke-linecap:round;stroke-linejoin:miter;stroke-miterlimit:4;stroke-opacity:0.13333333;stroke-dasharray:none;stroke-dashoffset:0" />
      <path
         d="m 171,652.36218 0,10 -5,5 0,5"
         id="path3887"
         style="fill:none;stroke:#000000;stroke-width:1.20000005;stroke-linecap:round;stroke-linejoin:miter;stroke-miterlimit:4;stroke-opacity:0.26666667;stroke-dasharray:none;stroke-dashoffset:0" />
      <path
         d="m 167,652.36218 0,9 -5,5 0,6"
         id="path3889"
         style="fill:none;stroke:#000000;stroke-width:1.20000005;stroke-linecap:round;stroke-linejoin:miter;stroke-miterlimit:4;stroke-opacity:0.26666667;stroke-dasharray:none;stroke-dashoffset:0" />
      <path
         d="m 163,652.36218 0,8 -5,5 0,7"
         id="path3891"
         style="fill:none;stroke:#000000;stroke-width:1.20000005;stroke-linecap:round;stroke-linejoin:miter;stroke-miterlimit:4;stroke-opacity:0.13333333;stroke-dasharray:none;stroke-dashoffset:0" />
      <path
         d="m 154,672.36218 0,-8 2,-2 0,-10"
         id="path3893"
         style="fill:none;stroke:#000000;stroke-width:1.20000005;stroke-linecap:round;stroke-linejoin:miter;stroke-miterlimit:4;stroke-opacity:0.26666667;stroke-dasharray:none;stroke-dashoffset:0" />
      <path
         d="m 150,672.36218 0,-9 2,-2 0,-9"
         id="path3895"
         style="fill:none;stroke:#000000;stroke-width:1.20000005;stroke-linecap:round;stroke-linejoin:miter;stroke-miterlimit:4;stroke-opacity:0.13333333;stroke-dasharray:none;stroke-dashoffset:0" />
      <path
         d="m 146,672.36218 0,-6 -3,-3 0,-11"
         id="path3897"
         style="fill:none;stroke:#000000;stroke-width:1.20000005;stroke-linecap:round;stroke-linejoin:miter;stroke-miterlimit:4;stroke-opacity:0.26666667;stroke-dasharray:none;stroke-dashoffset:0" />
      <path
         d="m 139,652.36218 0,12 3,3 0,5"
         id="path3899"
         style="fill:none;stroke:#000000;stroke-width:1.20000005;stroke-linecap:round;stroke-linejoin:miter;stroke-miterlimit:4;stroke-opacity:0.26666667;stroke-dasharray:none;stroke-dashoffset:0" />
      <path
         d="m 135,652.36218 0,13 3,3 0,4"
         id="path3901"
         style="fill:none;stroke:#000000;stroke-width:1.20000005;stroke-linecap:round;stroke-linejoin:miter;stroke-miterlimit:4;stroke-opacity:0.13333333;stroke-dasharray:none;stroke-dashoffset:0" />
      <path
         d="m 128,652.36218 3,3 0,12 -2,2 0,3"
         id="path3903"
         style="fill:none;stroke:#000000;stroke-width:1.20000005;stroke-linecap:round;stroke-linejoin:miter;stroke-miterlimit:4;stroke-opacity:0.13333333;stroke-dasharray:none;stroke-dashoffset:0" />
      <path
         d="m 125,672.36218 0,-4 2,-2 0,-10 -4,-4"
         id="path3905"
         style="fill:none;stroke:#000000;stroke-width:1.20000005;stroke-linecap:round;stroke-linejoin:miter;stroke-miterlimit:4;stroke-opacity:0.26666667;stroke-dasharray:none;stroke-dashoffset:0" />
      <path
         d="m 121,672.36218 0,-5 2,-2 0,-8 -5,-5"
         id="path3907"
         style="fill:none;stroke:#000000;stroke-width:1.20000005;stroke-linecap:round;stroke-linejoin:miter;stroke-miterlimit:4;stroke-opacity:0.26666667;stroke-dasharray:none;stroke-dashoffset:0" />
      <path
         d="m 90,652.36218 0,5 3,3 0,12"
         id="path3909"
         style="fill:none;stroke:#000000;stroke-width:1.20000005;stroke-linecap:round;stroke-linejoin:miter;stroke-miterlimit:4;stroke-opacity:0.26666667;stroke-dasharray:none;stroke-dashoffset:0" />
      <path
         d="m 86,652.36218 0,6 3,3 0,11"
         id="path3911"
         style="fill:none;stroke:#000000;stroke-width:1.20000005;stroke-linecap:round;stroke-linejoin:miter;stroke-miterlimit:4;stroke-opacity:0.13333333;stroke-dasharray:none;stroke-dashoffset:0" />
      <path
         d="m 82,652.36218 0,7 1,1 0,9 -1,1 0,2"
         id="path3913"
         style="fill:none;stroke:#000000;stroke-width:1.20000005;stroke-linecap:round;stroke-linejoin:miter;stroke-miterlimit:4;stroke-opacity:0.26666667;stroke-dasharray:none;stroke-dashoffset:0" />
      <path
         d="m 78,672.36218 0,-3 1,-1 0,-7 -1,-1 0,-8"
         id="path3915"
         style="fill:none;stroke:#000000;stroke-width:1.20000005;stroke-linecap:round;stroke-linejoin:miter;stroke-miterlimit:4;stroke-opacity:0.26666667;stroke-dasharray:none;stroke-dashoffset:0" />
      <path
         d="m 74,672.36218 0,-14 -6,-6"
         id="path3917"
         style="fill:none;stroke:#000000;stroke-width:1.20000005;stroke-linecap:round;stroke-linejoin:miter;stroke-miterlimit:4;stroke-opacity:0.13333333;stroke-dasharray:none;stroke-dashoffset:0" />
      <path
         d="m 50,702.36218 -2,0 -2,-2 0,-23 -11,-11 -10,0 -9,-9 0,-5"
         id="path3919"
         style="fill:none;stroke:#000000;stroke-width:1.20000005;stroke-linecap:round;stroke-linejoin:miter;stroke-miterlimit:4;stroke-opacity:0.13333333;stroke-dasharray:none;stroke-dashoffset:0" />
      <path
         d="m 50,706.36218 -3,0 -5,-5 0,-23 -8,-8 -10,0 -18,-18"
         id="path3921"
         style="fill:none;stroke:#000000;stroke-width:1.20000005;stroke-linecap:round;stroke-linejoin:miter;stroke-miterlimit:4;stroke-opacity:0.26666667;stroke-dasharray:none;stroke-dashoffset:0" />
      <path
         d="m 50,710.36218 -4,0 -8,-8 0,-23 -5,-5 -10,0 -22,-22"
         id="path3923"
         style="fill:none;stroke:#000000;stroke-width:1.20000005;stroke-linecap:round;stroke-linejoin:miter;stroke-miterlimit:4;stroke-opacity:0.13333333;stroke-dasharray:none;stroke-dashoffset:0" />
      <path
         d="m 56,672.36218 0,-2 -1,-1 -12,0 -7,-7 -10,0 -6,-6 0,-4"
         id="path3925"
         style="fill:none;stroke:#000000;stroke-width:1.20000005;stroke-linecap:round;stroke-linejoin:miter;stroke-miterlimit:4;stroke-opacity:0.26666667;stroke-dasharray:none;stroke-dashoffset:0" />
    </g>
    <path
       d="m 210,822.36218 -160,0 0,150 40,40.00002 120,0 z"
       id="path3794"
       style="fill:#dddddd;fill-opacity:1;stroke:#333333;stroke-width:1.20000005;stroke-linecap:round;stroke-linejoin:miter;stroke-miterlimit:4;stroke-opacity:1;stroke-dasharray:none;stroke-dashoffset:0" />
    <path
       d="m 210,672.36218 -160,0 0,110 20,20 140,0 z"
       id="path3792"
       style="fill:#dddddd;fill-opacity:1;stroke:#333333;stroke-width:1.20000005;stroke-linecap:round;stroke-linejoin:miter;stroke-miterlimit:4;stroke-opacity:1;stroke-dasharray:none;stroke-dashoffset:0" />
  </g>
</svg>
