<?xml version="1.0" encoding="UTF-8" standalone="no"?>
<svg xmlns="http://www.w3.org/2000/svg" version="1.1" width="280" height="280">
  <g fill="none" stroke="#333" stroke-width="1.2">
    <path d="m 136.94,114.75 -43.44,-21.75 14,28.31 6.44,-0.81 -7.06,-14.13 23.44,11.63 z" /> 
    <path d="m 147.63,112.75 -16.06,8 -0.75,5.94 3.06,-0.44 14.75,-7.38 z" /> 
    <path d="m 125.25,136.38 1.56,-3.13 1.81,-12.69 -5.25,-2.5 -1.56,11.38 z" /> 
    <path d="m 118.88,128.44 0.88,-5.75 -118.75,17.06 105.13,14.88 2.56,-5.19 -67.81,-9.69 z" /> 
    <path d="m 143.56,164.75 43.44,21.75 -14,-28.31 -6.44,0.81 7.06,14.13 -23.44,-11.63 z" /> 
    <path d="m 132.87,166.75 16.06,-8 0.75,-5.94 -3.06,0.44 -14.75,7.38 z" /> 
    <path d="m 155.25,143.13 -1.56,3.13 -1.81,12.69 5.25,2.5 1.56,-11.38 z" /> 
    <path d="m 161.62,151.06 -0.88,5.75 118.75,-17.06 -105.13,-14.88 -2.56,5.19 67.81,9.69 z" /> 
    <path d="m 115.25,143.06 -21.75,43.44 28.31,-14 -0.81,-6.44 -14.13,7.06 11.63,-23.44 z" /> 
    <path d="m 113.25,132.38 8,16.06 5.94,0.75 -0.44,-3.06 -7.38,-14.75 z" /> 
    <path d="m 136.87,154.75 -3.13,-1.56 -12.69,-1.81 -2.5,5.25 11.38,1.56 z" /> 
    <path d="m 128.94,161.13 -5.75,-0.88 17.06,118.75 14.88,-105.13 -5.19,-2.56 -9.69,67.81 z" /> 
    <path d="m 165.25,136.44 21.75,-43.44 -28.31,14 0.81,6.44 14.13,-7.06 -11.63,23.44 z" /> 
    <path d="m 167.25,147.13 -8,-16.06 -5.94,-0.75 0.44,3.06 7.38,14.75 z" /> 
    <path d="m 143.63,124.75 3.13,1.56 12.69,1.81 2.5,-5.25 -11.38,-1.56 z" /> 
    <path d="m 151.56,118.38 5.75,0.88 -17.06,-118.75 -14.88,105.13 5.19,2.56 9.69,-67.81 z" /> 
  </g>
</svg>
