<?xml version="1.0" encoding="UTF-8" standalone="no"?>
<!-- Created with Inkscape (http://www.inkscape.org/) -->

<svg
   xmlns:dc="http://purl.org/dc/elements/1.1/"
   xmlns:cc="http://creativecommons.org/ns#"
   xmlns:rdf="http://www.w3.org/1999/02/22-rdf-syntax-ns#"
   xmlns:svg="http://www.w3.org/2000/svg"
   xmlns="http://www.w3.org/2000/svg"
   version="1.1"
   width="210"
   height="180">
  <defs
     id="defs4" />
  <metadata
     id="metadata7">
    <rdf:RDF>
      <cc:Work
         rdf:about="">
        <dc:format>image/svg+xml</dc:format>
        <dc:type
           rdf:resource="http://purl.org/dc/dcmitype/StillImage" />
        <dc:title></dc:title>
      </cc:Work>
    </rdf:RDF>
  </metadata>
  <g
     transform="translate(0,-872.36218)"
     style="fill:none;stroke:#333333;stroke-width:1;stroke-miterlimit:4;stroke-opacity:1;stroke-dasharray:none">
    <path
       d="m 136.9375,887.11218 -43.4375,-21.75 14,28.3125 6.4375,-0.8125 -7.0625,-14.125 23.4375,11.625 z" />
    <path
       d="m 147.625,885.11218 -16.0625,8 -0.75,5.9375 3.0625,-0.4375 14.75,-7.375 z" />
    <path
       d="m 125.25,908.73718 1.5625,-3.125 1.8125,-12.6875 -5.25,-2.5 -1.5625,11.375 z" />
    <path
       d="m 118.875,900.79968 0.875,-5.75 -118.75,17.0625 105.125,14.875 2.5625,-5.1875 -67.8125,-9.6875 z" />
    <path
       d="m 143.56167,937.11302 43.4375,21.75 -14,-28.3125 -6.4375,0.8125 7.0625,14.125 -23.4375,-11.625 z" />
    <path
       d="m 132.87417,939.11302 16.0625,-8 0.75,-5.9375 -3.0625,0.4375 -14.75,7.375 z" />
    <path
       d="m 155.24917,915.48802 -1.5625,3.125 -1.8125,12.6875 5.25,2.5 1.5625,-11.375 z" />
    <path
       d="m 161.62417,923.42552 -0.875,5.75 118.75,-17.0625 -105.125,-14.875 -2.5625,5.1875 67.8125,9.6875 z" />
    <path
       d="m 115.24917,915.42468 -21.75,43.4375 28.3125,-14 -0.8125,-6.4375 -14.125,7.0625 11.625,-23.4375 z" />
    <path
       d="m 113.24917,904.73718 8,16.0625 5.9375,0.75 -0.4375,-3.0625 -7.375,-14.75 z" />
    <path
       d="m 136.87417,927.11218 -3.125,-1.5625 -12.6875,-1.8125 -2.5,5.25 11.375,1.5625 z" />
    <path
       d="m 128.93667,933.48718 -5.75,-0.875 17.0625,118.75002 14.875,-105.12502 -5.1875,-2.5625 -9.6875,67.81252 z" />
    <path
       d="m 165.25,908.80052 21.75,-43.4375 -28.3125,14 0.8125,6.4375 14.125,-7.0625 -11.625,23.4375 z" />
    <path
       d="m 167.25,919.48802 -8,-16.0625 -5.9375,-0.75 0.4375,3.0625 7.375,14.75 z" />
    <path
       d="m 143.625,897.11302 3.125,1.5625 12.6875,1.8125 2.5,-5.25 -11.375,-1.5625 z" />
    <path
       d="m 151.5625,890.73802 5.75,0.875 -17.0625,-118.75 -14.875,105.125 5.1875,2.5625 9.6875,-67.8125 z" />
    <g style="fill:#333333;fill-opacity:1;stroke:none">
      <path
         d="m 14.958358,988.48352 0,-13.86 8.46,0 0,1.66 -6.52,0 0,4.12 5.8,0 0,1.62 -5.8,0 0,4.8 7.02,0 0,1.66 -8.96,0" />
      <path
         d="m 28.444608,982.60352 c -4e-6,0.36001 -0.120004,0.67334 -0.36,0.94 -0.240004,0.26667 -0.56667,0.40001 -0.98,0.4 -0.413336,10e-6 -0.740002,-0.13333 -0.98,-0.4 -0.240002,-0.26666 -0.360002,-0.57999 -0.36,-0.94 -2e-6,-0.35999 0.119998,-0.67333 0.36,-0.94 0.239998,-0.26666 0.566664,-0.39999 0.98,-0.4 0.41333,10e-6 0.739996,0.13334 0.98,0.4 0.239996,0.26667 0.359996,0.58001 0.36,0.94" />
      <path
         d="m 40.786483,988.48352 c -0.293345,-0.49333 -0.633344,-1.04667 -1.02,-1.66 -0.373344,-0.61333 -0.78001,-1.24666 -1.22,-1.9 -0.440009,-0.66666 -0.900009,-1.33999 -1.38,-2.02 -0.466674,-0.67999 -0.93334,-1.33333 -1.4,-1.96 -0.466673,-0.63999 -0.920006,-1.23999 -1.36,-1.8 -0.440005,-0.55999 -0.846671,-1.05332 -1.22,-1.48 l 0,10.82 -1.9,0 0,-13.86 1.54,0 c 0.626662,0.66668 1.293328,1.44668 2,2.34 0.719994,0.88001 1.42666,1.79334 2.12,2.74 0.706658,0.93334 1.366657,1.85334 1.98,2.76 0.626656,0.90667 1.153322,1.71334 1.58,2.42 l 0,-10.26 1.9,0 0,13.86 -1.62,0" />
      <path
         d="m 47.936795,982.60352 c -4e-6,0.36001 -0.120004,0.67334 -0.36,0.94 -0.240003,0.26667 -0.566669,0.40001 -0.98,0.4 -0.413335,10e-6 -0.740002,-0.13333 -0.98,-0.4 -0.240001,-0.26666 -0.360001,-0.57999 -0.36,-0.94 -10e-7,-0.35999 0.119999,-0.67333 0.36,-0.94 0.239998,-0.26666 0.566665,-0.39999 0.98,-0.4 0.413331,10e-6 0.739997,0.13334 0.98,0.4 0.239996,0.26667 0.359996,0.58001 0.36,0.94" />
      <path
         d="m 62.15867,981.54352 c -1.3e-5,1.20001 -0.18668,2.24667 -0.56,3.14 -0.373345,0.88 -0.900012,1.61334 -1.58,2.2 -0.68001,0.57333 -1.493343,1.00667 -2.44,1.3 -0.946674,0.28 -1.986673,0.42 -3.12,0.42 -0.560005,0 -1.180004,-0.0267 -1.86,-0.08 -0.666669,-0.04 -1.273336,-0.12667 -1.82,-0.26 l 0,-13.44 c 0.546664,-0.13332 1.153331,-0.21999 1.82,-0.26 0.679996,-0.0533 1.299995,-0.08 1.86,-0.08 1.133327,10e-6 2.173326,0.14668 3.12,0.44 0.946657,0.28001 1.75999,0.71335 2.44,1.3 0.679988,0.57335 1.206655,1.30668 1.58,2.2 0.37332,0.88001 0.559987,1.92001 0.56,3.12 m -7.54,5.36 c 1.839993,0 3.213325,-0.46666 4.12,-1.4 0.906656,-0.94666 1.359989,-2.26666 1.36,-3.96 -1.1e-5,-1.69332 -0.453344,-3.00666 -1.36,-3.94 -0.906675,-0.94665 -2.280007,-1.41999 -4.12,-1.42 -0.546672,10e-6 -0.973338,0.007 -1.28,0.02 -0.293337,0.0133 -0.500004,0.0267 -0.62,0.04 l 0,10.6 c 0.119996,0.0133 0.326663,0.0267 0.62,0.04 0.306662,0.0133 0.733328,0.02 1.28,0.02" />
      <path
         d="m 67.116483,982.60352 c -4e-6,0.36001 -0.120004,0.67334 -0.36,0.94 -0.240004,0.26667 -0.56667,0.40001 -0.98,0.4 -0.413336,10e-6 -0.740002,-0.13333 -0.98,-0.4 -0.240002,-0.26666 -0.360002,-0.57999 -0.36,-0.94 -2e-6,-0.35999 0.119998,-0.67333 0.36,-0.94 0.239998,-0.26666 0.566664,-0.39999 0.98,-0.4 0.41333,10e-6 0.739996,0.13334 0.98,0.4 0.239996,0.26667 0.359996,0.58001 0.36,0.94" />
      <path
         d="m 78.298358,986.80352 0,1.68 -8.34,0 0,-13.86 1.94,0 0,12.18 6.4,0" />
      <path
         d="m 82.428983,982.60352 c -4e-6,0.36001 -0.120004,0.67334 -0.36,0.94 -0.240004,0.26667 -0.56667,0.40001 -0.98,0.4 -0.413336,10e-6 -0.740002,-0.13333 -0.98,-0.4 -0.240002,-0.26666 -0.360002,-0.57999 -0.36,-0.94 -2e-6,-0.35999 0.119998,-0.67333 0.36,-0.94 0.239998,-0.26666 0.566664,-0.39999 0.98,-0.4 0.41333,10e-6 0.739996,0.13334 0.98,0.4 0.239996,0.26667 0.359996,0.58001 0.36,0.94" />
      <path
         d="m 85.270858,988.48352 0,-13.86 8.46,0 0,1.66 -6.52,0 0,4.12 5.8,0 0,1.62 -5.8,0 0,4.8 7.02,0 0,1.66 -8.96,0" />
      <path
         d="m 98.757108,982.60352 c -4e-6,0.36001 -0.120004,0.67334 -0.36,0.94 -0.240004,0.26667 -0.56667,0.40001 -0.98,0.4 -0.413336,10e-6 -0.740002,-0.13333 -0.98,-0.4 -0.240002,-0.26666 -0.360002,-0.57999 -0.36,-0.94 -2e-6,-0.35999 0.119998,-0.67333 0.36,-0.94 0.239998,-0.26666 0.566664,-0.39999 0.98,-0.4 0.41333,10e-6 0.739996,0.13334 0.98,0.4 0.239996,0.26667 0.359996,0.58001 0.36,0.94" />
      <path
         d="m 104.81898,987.10352 c 2.02666,0 3.03999,-0.69333 3.04,-2.08 -1e-5,-0.42666 -0.0933,-0.78666 -0.28,-1.08 -0.17334,-0.30666 -0.41334,-0.56666 -0.72,-0.78 -0.30667,-0.22666 -0.66,-0.41999 -1.06,-0.58 -0.38667,-0.15999 -0.8,-0.31999 -1.24,-0.48 -0.50667,-0.17333 -0.98667,-0.36666 -1.44,-0.58 -0.45333,-0.22666 -0.84667,-0.48666 -1.18,-0.78 -0.33333,-0.30666 -0.6,-0.66666 -0.8,-1.08 -0.18667,-0.41332 -0.28,-0.91332 -0.28,-1.5 0,-1.21332 0.41333,-2.15999 1.24,-2.84 0.82667,-0.67999 1.96667,-1.01999 3.42,-1.02 0.84,10e-6 1.6,0.0933 2.28,0.28 0.69333,0.17335 1.19999,0.36668 1.52,0.58 l -0.62,1.58 c -0.28001,-0.17332 -0.70001,-0.33999 -1.26,-0.5 -0.54667,-0.17332 -1.18667,-0.25999 -1.92,-0.26 -0.37334,10e-6 -0.72,0.04 -1.04,0.12 -0.32,0.08 -0.6,0.20001 -0.84,0.36 -0.24,0.16001 -0.43333,0.36668 -0.58,0.62 -0.13333,0.24001 -0.2,0.52668 -0.2,0.86 0,0.37334 0.0733,0.68668 0.22,0.94 0.14667,0.25334 0.35333,0.48001 0.62,0.68 0.26667,0.18668 0.57333,0.36001 0.92,0.52 0.36,0.16001 0.75333,0.32001 1.18,0.48 0.6,0.24001 1.14666,0.48001 1.64,0.72 0.50666,0.24001 0.93999,0.52667 1.3,0.86 0.37333,0.33334 0.65999,0.73334 0.86,1.2 0.19999,0.45334 0.29999,1.00667 0.3,1.66 -10e-6,1.21334 -0.44667,2.14667 -1.34,2.8 -0.88001,0.65333 -2.12667,0.98 -3.74,0.98 -0.54667,0 -1.05333,-0.04 -1.52,-0.12 -0.45333,-0.0667 -0.86,-0.14667 -1.22,-0.24 -0.36,-0.10667 -0.67333,-0.21333 -0.94,-0.32 -0.25333,-0.12 -0.45333,-0.22 -0.6,-0.3 l 0.58,-1.6 c 0.30667,0.17334 0.77333,0.36667 1.4,0.58 0.62667,0.21334 1.39333,0.32 2.3,0.32" />
      <path
         d="m 114.30398,982.60352 c 0,0.36001 -0.12,0.67334 -0.36,0.94 -0.24,0.26667 -0.56667,0.40001 -0.98,0.4 -0.41333,10e-6 -0.74,-0.13333 -0.98,-0.4 -0.24,-0.26666 -0.36,-0.57999 -0.36,-0.94 0,-0.35999 0.12,-0.67333 0.36,-0.94 0.24,-0.26666 0.56667,-0.39999 0.98,-0.4 0.41333,10e-6 0.74,0.13334 0.98,0.4 0.24,0.26667 0.36,0.58001 0.36,0.94" />
      <path
         d="m 120.36586,987.10352 c 2.02666,0 3.03999,-0.69333 3.04,-2.08 -1e-5,-0.42666 -0.0933,-0.78666 -0.28,-1.08 -0.17334,-0.30666 -0.41334,-0.56666 -0.72,-0.78 -0.30668,-0.22666 -0.66001,-0.41999 -1.06,-0.58 -0.38667,-0.15999 -0.80001,-0.31999 -1.24,-0.48 -0.50667,-0.17333 -0.98667,-0.36666 -1.44,-0.58 -0.45334,-0.22666 -0.84667,-0.48666 -1.18,-0.78 -0.33334,-0.30666 -0.6,-0.66666 -0.8,-1.08 -0.18667,-0.41332 -0.28,-0.91332 -0.28,-1.5 0,-1.21332 0.41333,-2.15999 1.24,-2.84 0.82666,-0.67999 1.96666,-1.01999 3.42,-1.02 0.83999,10e-6 1.59999,0.0933 2.28,0.28 0.69332,0.17335 1.19999,0.36668 1.52,0.58 l -0.62,1.58 c -0.28001,-0.17332 -0.70001,-0.33999 -1.26,-0.5 -0.54668,-0.17332 -1.18668,-0.25999 -1.92,-0.26 -0.37334,10e-6 -0.72001,0.04 -1.04,0.12 -0.32001,0.08 -0.60001,0.20001 -0.84,0.36 -0.24001,0.16001 -0.43334,0.36668 -0.58,0.62 -0.13334,0.24001 -0.20001,0.52668 -0.2,0.86 -1e-5,0.37334 0.0733,0.68668 0.22,0.94 0.14666,0.25334 0.35333,0.48001 0.62,0.68 0.26666,0.18668 0.57333,0.36001 0.92,0.52 0.35999,0.16001 0.75333,0.32001 1.18,0.48 0.59999,0.24001 1.14666,0.48001 1.64,0.72 0.50666,0.24001 0.93999,0.52667 1.3,0.86 0.37332,0.33334 0.65999,0.73334 0.86,1.2 0.19999,0.45334 0.29999,1.00667 0.3,1.66 -1e-5,1.21334 -0.44668,2.14667 -1.34,2.8 -0.88001,0.65333 -2.12668,0.98 -3.74,0.98 -0.54667,0 -1.05334,-0.04 -1.52,-0.12 -0.45334,-0.0667 -0.86001,-0.14667 -1.22,-0.24 -0.36,-0.10667 -0.67334,-0.21333 -0.94,-0.32 -0.25334,-0.12 -0.45334,-0.22 -0.6,-0.3 l 0.58,-1.6 c 0.30666,0.17334 0.77333,0.36667 1.4,0.58 0.62666,0.21334 1.39333,0.32 2.3,0.32" />
      <path
         d="m 158.64711,987.10352 c 2.02666,0 3.03999,-0.69333 3.04,-2.08 -1e-5,-0.42666 -0.0933,-0.78666 -0.28,-1.08 -0.17334,-0.30666 -0.41334,-0.56666 -0.72,-0.78 -0.30668,-0.22666 -0.66001,-0.41999 -1.06,-0.58 -0.38667,-0.15999 -0.80001,-0.31999 -1.24,-0.48 -0.50667,-0.17333 -0.98667,-0.36666 -1.44,-0.58 -0.45334,-0.22666 -0.84667,-0.48666 -1.18,-0.78 -0.33334,-0.30666 -0.6,-0.66666 -0.8,-1.08 -0.18667,-0.41332 -0.28,-0.91332 -0.28,-1.5 0,-1.21332 0.41333,-2.15999 1.24,-2.84 0.82666,-0.67999 1.96666,-1.01999 3.42,-1.02 0.83999,10e-6 1.59999,0.0933 2.28,0.28 0.69332,0.17335 1.19999,0.36668 1.52,0.58 l -0.62,1.58 c -0.28001,-0.17332 -0.70001,-0.33999 -1.26,-0.5 -0.54668,-0.17332 -1.18668,-0.25999 -1.92,-0.26 -0.37334,10e-6 -0.72001,0.04 -1.04,0.12 -0.32001,0.08 -0.60001,0.20001 -0.84,0.36 -0.24001,0.16001 -0.43334,0.36668 -0.58,0.62 -0.13334,0.24001 -0.20001,0.52668 -0.2,0.86 -1e-5,0.37334 0.0733,0.68668 0.22,0.94 0.14666,0.25334 0.35333,0.48001 0.62,0.68 0.26666,0.18668 0.57333,0.36001 0.92,0.52 0.35999,0.16001 0.75333,0.32001 1.18,0.48 0.59999,0.24001 1.14666,0.48001 1.64,0.72 0.50666,0.24001 0.93999,0.52667 1.3,0.86 0.37332,0.33334 0.65999,0.73334 0.86,1.2 0.19999,0.45334 0.29999,1.00667 0.3,1.66 -1e-5,1.21334 -0.44668,2.14667 -1.34,2.8 -0.88001,0.65333 -2.12668,0.98 -3.74,0.98 -0.54667,0 -1.05334,-0.04 -1.52,-0.12 -0.45334,-0.0667 -0.86001,-0.14667 -1.22,-0.24 -0.36,-0.10667 -0.67334,-0.21333 -0.94,-0.32 -0.25334,-0.12 -0.45334,-0.22 -0.6,-0.3 l 0.58,-1.6 c 0.30666,0.17334 0.77333,0.36667 1.4,0.58 0.62666,0.21334 1.39333,0.32 2.3,0.32" />
      <path
         d="m 168.13211,982.60352 c -1e-5,0.36001 -0.12001,0.67334 -0.36,0.94 -0.24001,0.26667 -0.56667,0.40001 -0.98,0.4 -0.41334,10e-6 -0.74,-0.13333 -0.98,-0.4 -0.24,-0.26666 -0.36,-0.57999 -0.36,-0.94 0,-0.35999 0.12,-0.67333 0.36,-0.94 0.24,-0.26666 0.56666,-0.39999 0.98,-0.4 0.41333,10e-6 0.73999,0.13334 0.98,0.4 0.23999,0.26667 0.35999,0.58001 0.36,0.94" />
      <path
         d="m 181.23398,974.62352 c -0.41334,0.45335 -0.88001,0.96001 -1.4,1.52 -0.52001,0.54668 -1.06667,1.11335 -1.64,1.7 -0.56001,0.57334 -1.12001,1.14001 -1.68,1.7 -0.56,0.56001 -1.08667,1.08001 -1.58,1.56 0.57333,0.40001 1.18,0.89334 1.82,1.48 0.63999,0.58667 1.26666,1.21334 1.88,1.88 0.61333,0.66667 1.18666,1.34667 1.72,2.04 0.54666,0.69334 0.99999,1.35333 1.36,1.98 l -2.28,0 c -0.40001,-0.62667 -0.86001,-1.25333 -1.38,-1.88 -0.52001,-0.64 -1.07334,-1.24666 -1.66,-1.82 -0.57334,-0.58666 -1.16,-1.12666 -1.76,-1.62 -0.58667,-0.49333 -1.16,-0.91333 -1.72,-1.26 l 0,6.58 -1.94,0 0,-13.86 1.94,0 0,6.12 c 0.46667,-0.43999 0.98,-0.93332 1.54,-1.48 0.56,-0.55999 1.11333,-1.11999 1.66,-1.68 0.54666,-0.55999 1.05999,-1.09332 1.54,-1.6 0.49333,-0.51999 0.90666,-0.97332 1.24,-1.36 l 2.34,0" />
      <path
         d="m 185.63211,982.60352 c -1e-5,0.36001 -0.12001,0.67334 -0.36,0.94 -0.24001,0.26667 -0.56667,0.40001 -0.98,0.4 -0.41334,10e-6 -0.74,-0.13333 -0.98,-0.4 -0.24,-0.26666 -0.36,-0.57999 -0.36,-0.94 0,-0.35999 0.12,-0.67333 0.36,-0.94 0.24,-0.26666 0.56666,-0.39999 0.98,-0.4 0.41333,10e-6 0.73999,0.13334 0.98,0.4 0.23999,0.26667 0.35999,0.58001 0.36,0.94" />
      <path
         d="m 191.77398,988.48352 0,-5.56 c -0.92,-1.42666 -1.78667,-2.83332 -2.6,-4.22 -0.81333,-1.38665 -1.58,-2.74665 -2.3,-4.08 l 2.28,0 c 0.50667,1.09335 1.07333,2.20668 1.7,3.34 0.62666,1.12001 1.27333,2.20001 1.94,3.24 0.65333,-1.03999 1.29333,-2.11999 1.92,-3.24 0.62666,-1.13332 1.19999,-2.24665 1.72,-3.34 l 2.16,0 c -0.72001,1.33335 -1.48667,2.69335 -2.3,4.08 -0.81334,1.37334 -1.67334,2.76667 -2.58,4.18 l 0,5.6 -1.94,0" />
    </g>
  </g>
</svg>
